<svg width="437" height="159" viewBox="0 0 437 159" fill="none" xmlns="http://www.w3.org/2000/svg">
<rect width="437" height="159" rx="60" fill="#3EB15D"/>
<path d="M107.289 96H99.8743L111.172 63.2727H120.089L131.371 96H123.956L115.759 70.7514H115.503L107.289 96ZM106.826 83.136H124.34V88.5373H106.826V83.136ZM141.99 63.2727V96H135.182V63.2727H141.99ZM158.501 105.716C156.296 105.716 154.405 105.412 152.828 104.805C151.262 104.208 150.016 103.393 149.089 102.36C148.162 101.327 147.56 100.165 147.283 98.8764L153.579 98.0295C153.771 98.5195 154.075 98.9776 154.49 99.4038C154.906 99.8299 155.454 100.171 156.136 100.426C156.829 100.693 157.67 100.826 158.661 100.826C160.142 100.826 161.362 100.464 162.321 99.7393C163.29 99.0256 163.775 97.8271 163.775 96.1438V91.6534H163.487C163.189 92.3352 162.741 92.9798 162.145 93.587C161.548 94.1942 160.781 94.6896 159.844 95.0732C158.906 95.4567 157.788 95.6484 156.488 95.6484C154.645 95.6484 152.967 95.2223 151.454 94.37C149.952 93.5071 148.753 92.1914 147.859 90.4229C146.974 88.6438 146.532 86.396 146.532 83.6793C146.532 80.8988 146.985 78.5763 147.891 76.712C148.796 74.8477 150 73.4521 151.502 72.5252C153.015 71.5984 154.671 71.1349 156.472 71.1349C157.846 71.1349 158.997 71.3693 159.924 71.8381C160.85 72.2962 161.596 72.8714 162.161 73.5639C162.736 74.2457 163.178 74.9169 163.487 75.5774H163.743V71.4545H170.502V96.2397C170.502 98.3278 169.991 100.075 168.968 101.481C167.946 102.887 166.529 103.942 164.718 104.645C162.917 105.359 160.845 105.716 158.501 105.716ZM158.645 90.5348C159.742 90.5348 160.669 90.2631 161.426 89.7198C162.193 89.1658 162.779 88.3775 163.184 87.3548C163.599 86.3214 163.807 85.0856 163.807 83.6474C163.807 82.2092 163.604 80.9627 163.199 79.908C162.795 78.8427 162.209 78.017 161.442 77.4311C160.675 76.8452 159.742 76.5522 158.645 76.5522C157.527 76.5522 156.584 76.8558 155.817 77.4631C155.05 78.0597 154.469 78.8906 154.075 79.956C153.681 81.0213 153.484 82.2518 153.484 83.6474C153.484 85.0643 153.681 86.2894 154.075 87.3228C154.48 88.3455 155.06 89.1392 155.817 89.7038C156.584 90.2578 157.527 90.5348 158.645 90.5348ZM187.01 96.4794C184.528 96.4794 182.381 95.9521 180.57 94.8974C178.769 93.832 177.379 92.3512 176.399 90.4549C175.419 88.5479 174.929 86.3374 174.929 83.8232C174.929 81.2876 175.419 79.0717 176.399 77.1754C177.379 75.2685 178.769 73.7876 180.57 72.733C182.381 71.6676 184.528 71.1349 187.01 71.1349C189.492 71.1349 191.633 71.6676 193.434 72.733C195.245 73.7876 196.641 75.2685 197.621 77.1754C198.601 79.0717 199.091 81.2876 199.091 83.8232C199.091 86.3374 198.601 88.5479 197.621 90.4549C196.641 92.3512 195.245 93.832 193.434 94.8974C191.633 95.9521 189.492 96.4794 187.01 96.4794ZM187.042 91.206C188.171 91.206 189.114 90.8864 189.87 90.2472C190.627 89.5973 191.197 88.7131 191.58 87.5945C191.974 86.4759 192.171 85.2028 192.171 83.7752C192.171 82.3477 191.974 81.0746 191.58 79.956C191.197 78.8374 190.627 77.9531 189.87 77.3033C189.114 76.6534 188.171 76.3285 187.042 76.3285C185.902 76.3285 184.943 76.6534 184.165 77.3033C183.398 77.9531 182.818 78.8374 182.424 79.956C182.04 81.0746 181.848 82.3477 181.848 83.7752C181.848 85.2028 182.04 86.4759 182.424 87.5945C182.818 88.7131 183.398 89.5973 184.165 90.2472C184.943 90.8864 185.902 91.206 187.042 91.206ZM203.517 96V71.4545H210.117V75.7372H210.373C210.82 74.2138 211.571 73.0632 212.626 72.2855C213.681 71.4972 214.895 71.103 216.269 71.103C216.61 71.103 216.978 71.1243 217.372 71.1669C217.766 71.2095 218.112 71.2681 218.411 71.3427V77.3832C218.091 77.2873 217.649 77.2021 217.084 77.1275C216.52 77.0529 216.003 77.0156 215.534 77.0156C214.533 77.0156 213.638 77.234 212.85 77.6708C212.072 78.0969 211.454 78.6935 210.996 79.4606C210.549 80.2276 210.325 81.1119 210.325 82.1133V96H203.517ZM221.93 96V71.4545H228.738V96H221.93ZM225.35 68.2905C224.338 68.2905 223.47 67.9549 222.745 67.2837C222.032 66.6019 221.675 65.7869 221.675 64.8388C221.675 63.9013 222.032 63.0969 222.745 62.4258C223.47 61.744 224.338 61.4031 225.35 61.4031C226.362 61.4031 227.225 61.744 227.939 62.4258C228.663 63.0969 229.026 63.9013 229.026 64.8388C229.026 65.7869 228.663 66.6019 227.939 67.2837C227.225 67.9549 226.362 68.2905 225.35 68.2905ZM247.247 71.4545V76.5682H232.465V71.4545H247.247ZM235.821 65.5739H242.629V88.4574C242.629 89.0859 242.725 89.576 242.916 89.9276C243.108 90.2685 243.374 90.5082 243.715 90.6467C244.067 90.7852 244.472 90.8544 244.93 90.8544C245.249 90.8544 245.569 90.8278 245.889 90.7745C246.208 90.7106 246.453 90.6626 246.624 90.6307L247.694 95.6964C247.353 95.8029 246.874 95.9254 246.256 96.0639C245.638 96.2131 244.887 96.3036 244.003 96.3356C242.362 96.3995 240.924 96.1811 239.688 95.6804C238.463 95.1797 237.51 94.402 236.828 93.3473C236.146 92.2926 235.81 90.9609 235.821 89.3523V65.5739ZM259.016 81.8097V96H252.209V63.2727H258.824V75.7852H259.112C259.666 74.3363 260.561 73.2017 261.797 72.3814C263.033 71.5504 264.583 71.1349 266.447 71.1349C268.152 71.1349 269.638 71.5078 270.905 72.2536C272.184 72.9886 273.175 74.0486 273.878 75.4336C274.592 76.8079 274.943 78.4538 274.932 80.3714V96H268.125V81.5859C268.136 80.0732 267.752 78.896 266.974 78.0543C266.207 77.2127 265.131 76.7919 263.746 76.7919C262.82 76.7919 261.999 76.989 261.285 77.3832C260.582 77.7773 260.028 78.3526 259.623 79.109C259.229 79.8548 259.027 80.755 259.016 81.8097ZM280.29 96V71.4545H286.778V75.7852H287.065C287.577 74.3469 288.429 73.2124 289.622 72.3814C290.815 71.5504 292.243 71.1349 293.905 71.1349C295.588 71.1349 297.021 71.5558 298.203 72.3974C299.386 73.2283 300.174 74.3576 300.569 75.7852H300.824C301.325 74.3789 302.23 73.255 303.541 72.4134C304.862 71.5611 306.423 71.1349 308.223 71.1349C310.513 71.1349 312.373 71.8647 313.8 73.3242C315.238 74.7731 315.957 76.8292 315.957 79.4925V96H309.166V80.8349C309.166 79.4712 308.804 78.4485 308.079 77.7667C307.355 77.0849 306.449 76.744 305.363 76.744C304.127 76.744 303.163 77.1381 302.47 77.9265C301.778 78.7042 301.431 79.7322 301.431 81.0107V96H294.832V80.6911C294.832 79.4872 294.485 78.5284 293.793 77.8146C293.111 77.1009 292.211 76.744 291.092 76.744C290.336 76.744 289.654 76.9357 289.047 77.3192C288.45 77.6921 287.976 78.2195 287.625 78.9013C287.273 79.5724 287.097 80.3608 287.097 81.2663V96H280.29ZM341.757 78.4538L335.525 78.8374C335.418 78.3047 335.189 77.8253 334.838 77.3991C334.486 76.9624 334.023 76.6161 333.448 76.3604C332.883 76.0941 332.206 75.9609 331.418 75.9609C330.363 75.9609 329.474 76.1847 328.749 76.6321C328.025 77.0689 327.663 77.6548 327.663 78.3899C327.663 78.9759 327.897 79.4712 328.366 79.8761C328.835 80.2809 329.639 80.6058 330.779 80.8509L335.221 81.7457C337.608 82.2358 339.387 83.0241 340.559 84.1108C341.731 85.1974 342.317 86.625 342.317 88.3935C342.317 90.0021 341.843 91.4137 340.894 92.6282C339.957 93.8427 338.668 94.7908 337.027 95.4727C335.397 96.1438 333.517 96.4794 331.386 96.4794C328.137 96.4794 325.548 95.8029 323.62 94.4499C321.702 93.0863 320.578 91.2326 320.248 88.8888L326.944 88.5373C327.146 89.5281 327.636 90.2844 328.414 90.8065C329.192 91.3178 330.188 91.5735 331.402 91.5735C332.595 91.5735 333.554 91.3445 334.279 90.8864C335.014 90.4176 335.387 89.8157 335.397 89.0806C335.387 88.4627 335.126 87.9567 334.614 87.5625C334.103 87.1577 333.314 86.8487 332.249 86.6357L327.998 85.7887C325.601 85.3093 323.817 84.4783 322.645 83.2958C321.484 82.1133 320.903 80.6058 320.903 78.7734C320.903 77.1967 321.329 75.8384 322.182 74.6985C323.045 73.5586 324.254 72.6797 325.809 72.0618C327.375 71.4439 329.208 71.1349 331.306 71.1349C334.406 71.1349 336.846 71.7901 338.625 73.1005C340.415 74.4109 341.459 76.1953 341.757 78.4538Z" fill="#EAEAEA"/>
</svg>
