<svg width="666" height="159" viewBox="0 0 666 159" fill="none" xmlns="http://www.w3.org/2000/svg">
<rect width="666" height="159" rx="60" fill="#B6CF6D"/>
<path d="M84.5438 74.7305H77.5445C77.4166 73.8249 77.1556 73.0206 76.7615 72.3175C76.3673 71.6037 75.8612 70.9964 75.2433 70.4957C74.6254 69.995 73.9117 69.6115 73.102 69.3452C72.303 69.0788 71.4347 68.9457 70.4972 68.9457C68.8034 68.9457 67.3279 69.3665 66.0708 70.2081C64.8137 71.0391 63.8389 72.2536 63.1464 73.8516C62.4539 75.4389 62.1077 77.3672 62.1077 79.6364C62.1077 81.9695 62.4539 83.9297 63.1464 85.517C63.8495 87.1044 64.8296 88.3029 66.0867 89.1126C67.3438 89.9222 68.798 90.3271 70.4493 90.3271C71.3762 90.3271 72.2338 90.2045 73.0221 89.9595C73.8211 89.7145 74.5296 89.3576 75.1475 88.8888C75.7654 88.4094 76.2767 87.8288 76.6816 87.147C77.097 86.4652 77.3847 85.6875 77.5445 84.8139L84.5438 84.8459C84.3627 86.348 83.9099 87.7969 83.1855 89.1925C82.4717 90.5774 81.5075 91.8185 80.2931 92.9158C79.0892 94.0025 77.651 94.8654 75.9784 95.5046C74.3165 96.1332 72.4362 96.4474 70.3374 96.4474C67.4184 96.4474 64.8083 95.7869 62.5072 94.4659C60.2167 93.1449 58.4056 91.2326 57.074 88.729C55.7529 86.2255 55.0924 83.1946 55.0924 79.6364C55.0924 76.0675 55.7636 73.0312 57.1059 70.5277C58.4482 68.0241 60.27 66.1172 62.5711 64.8068C64.8722 63.4858 67.461 62.8253 70.3374 62.8253C72.2338 62.8253 73.9916 63.0916 75.6109 63.6243C77.2409 64.157 78.6844 64.9347 79.9415 65.9574C81.1986 66.9695 82.2213 68.2106 83.0097 69.6808C83.8087 71.1509 84.32 72.8342 84.5438 74.7305ZM100.468 96.4794C97.9857 96.4794 95.839 95.9521 94.028 94.8974C92.2275 93.832 90.8373 92.3512 89.8572 90.4549C88.877 88.5479 88.387 86.3374 88.387 83.8232C88.387 81.2876 88.877 79.0717 89.8572 77.1754C90.8373 75.2685 92.2275 73.7876 94.028 72.733C95.839 71.6676 97.9857 71.1349 100.468 71.1349C102.95 71.1349 105.092 71.6676 106.892 72.733C108.703 73.7876 110.099 75.2685 111.079 77.1754C112.059 79.0717 112.549 81.2876 112.549 83.8232C112.549 86.3374 112.059 88.5479 111.079 90.4549C110.099 92.3512 108.703 93.832 106.892 94.8974C105.092 95.9521 102.95 96.4794 100.468 96.4794ZM100.5 91.206C101.629 91.206 102.572 90.8864 103.328 90.2472C104.085 89.5973 104.655 88.7131 105.038 87.5945C105.432 86.4759 105.63 85.2028 105.63 83.7752C105.63 82.3477 105.432 81.0746 105.038 79.956C104.655 78.8374 104.085 77.9531 103.328 77.3033C102.572 76.6534 101.629 76.3285 100.5 76.3285C99.36 76.3285 98.4012 76.6534 97.6235 77.3033C96.8564 77.9531 96.2758 78.8374 95.8817 79.956C95.4981 81.0746 95.3064 82.3477 95.3064 83.7752C95.3064 85.2028 95.4981 86.4759 95.8817 87.5945C96.2758 88.7131 96.8564 89.5973 97.6235 90.2472C98.4012 90.8864 99.36 91.206 100.5 91.206ZM116.975 96V71.4545H123.463V75.7852H123.751C124.262 74.3469 125.115 73.2124 126.308 72.3814C127.501 71.5504 128.929 71.1349 130.59 71.1349C132.274 71.1349 133.707 71.5558 134.889 72.3974C136.072 73.2283 136.86 74.3576 137.254 75.7852H137.51C138.011 74.3789 138.916 73.255 140.226 72.4134C141.547 71.5611 143.108 71.1349 144.909 71.1349C147.199 71.1349 149.058 71.8647 150.486 73.3242C151.924 74.7731 152.643 76.8292 152.643 79.4925V96H145.851V80.8349C145.851 79.4712 145.489 78.4485 144.765 77.7667C144.04 77.0849 143.135 76.744 142.048 76.744C140.812 76.744 139.848 77.1381 139.156 77.9265C138.463 78.7042 138.117 79.7322 138.117 81.0107V96H131.517V80.6911C131.517 79.4872 131.171 78.5284 130.479 77.8146C129.797 77.1009 128.897 76.744 127.778 76.744C127.022 76.744 126.34 76.9357 125.733 77.3192C125.136 77.6921 124.662 78.2195 124.31 78.9013C123.959 79.5724 123.783 80.3608 123.783 81.2663V96H116.975ZM158.02 105.205V71.4545H164.732V75.5774H165.036C165.334 74.9169 165.765 74.2457 166.33 73.5639C166.905 72.8714 167.651 72.2962 168.567 71.8381C169.494 71.3693 170.645 71.1349 172.019 71.1349C173.809 71.1349 175.46 71.6037 176.973 72.5412C178.486 73.468 179.695 74.869 180.6 76.744C181.506 78.6083 181.959 80.9467 181.959 83.7592C181.959 86.4972 181.516 88.8089 180.632 90.6946C179.759 92.5696 178.565 93.9918 177.053 94.9613C175.551 95.9201 173.867 96.3995 172.003 96.3995C170.682 96.3995 169.558 96.1811 168.631 95.7443C167.715 95.3075 166.964 94.7589 166.378 94.0984C165.792 93.4272 165.345 92.7507 165.036 92.0689H164.828V105.205H158.02ZM164.684 83.7273C164.684 85.1868 164.886 86.4599 165.291 87.5465C165.696 88.6332 166.282 89.4801 167.049 90.0874C167.816 90.6839 168.748 90.9822 169.846 90.9822C170.954 90.9822 171.891 90.6786 172.658 90.0714C173.425 89.4535 174.006 88.6012 174.4 87.5146C174.805 86.4173 175.007 85.1548 175.007 83.7273C175.007 82.3104 174.81 81.0639 174.416 79.9879C174.022 78.9119 173.441 78.0703 172.674 77.4631C171.907 76.8558 170.964 76.5522 169.846 76.5522C168.738 76.5522 167.8 76.8452 167.033 77.4311C166.277 78.017 165.696 78.848 165.291 79.924C164.886 81 164.684 82.2678 164.684 83.7273ZM197.683 96.4794C195.158 96.4794 192.985 95.968 191.163 94.9453C189.352 93.9119 187.956 92.4524 186.976 90.5668C185.996 88.6705 185.506 86.4279 185.506 83.8391C185.506 81.3143 185.996 79.0984 186.976 77.1914C187.956 75.2844 189.336 73.7983 191.115 72.733C192.905 71.6676 195.004 71.1349 197.411 71.1349C199.031 71.1349 200.538 71.396 201.934 71.918C203.34 72.4293 204.565 73.2017 205.609 74.2351C206.664 75.2685 207.484 76.5682 208.07 78.1342C208.656 79.6896 208.949 81.5114 208.949 83.5994V85.4691H188.223V81.2504H202.541C202.541 80.2702 202.328 79.402 201.902 78.6456C201.476 77.8892 200.884 77.2979 200.128 76.8718C199.382 76.435 198.514 76.2166 197.523 76.2166C196.49 76.2166 195.574 76.4563 194.775 76.9357C193.986 77.4045 193.368 78.0384 192.921 78.8374C192.473 79.6257 192.244 80.5046 192.234 81.4741V85.4851C192.234 86.6996 192.457 87.7489 192.905 88.6332C193.363 89.5174 194.008 90.1992 194.839 90.6786C195.669 91.158 196.655 91.3977 197.795 91.3977C198.551 91.3977 199.244 91.2912 199.872 91.0781C200.501 90.8651 201.039 90.5455 201.486 90.1193C201.934 89.6932 202.275 89.1712 202.509 88.5533L208.805 88.9688C208.486 90.4815 207.83 91.8026 206.84 92.9318C205.859 94.0504 204.592 94.924 203.036 95.5526C201.492 96.1705 199.707 96.4794 197.683 96.4794ZM226.447 71.4545V76.5682H211.666V71.4545H226.447ZM215.021 65.5739H221.829V88.4574C221.829 89.0859 221.925 89.576 222.117 89.9276C222.308 90.2685 222.575 90.5082 222.916 90.6467C223.267 90.7852 223.672 90.8544 224.13 90.8544C224.45 90.8544 224.769 90.8278 225.089 90.7745C225.408 90.7106 225.653 90.6626 225.824 90.6307L226.895 95.6964C226.554 95.8029 226.074 95.9254 225.456 96.0639C224.839 96.2131 224.087 96.3036 223.203 96.3356C221.563 96.3995 220.124 96.1811 218.889 95.6804C217.663 95.1797 216.71 94.402 216.028 93.3473C215.346 92.2926 215.011 90.9609 215.021 89.3523V65.5739ZM230.882 96V71.4545H237.689V96H230.882ZM234.301 68.2905C233.289 68.2905 232.421 67.9549 231.697 67.2837C230.983 66.6019 230.626 65.7869 230.626 64.8388C230.626 63.9013 230.983 63.0969 231.697 62.4258C232.421 61.744 233.289 61.4031 234.301 61.4031C235.313 61.4031 236.176 61.744 236.89 62.4258C237.615 63.0969 237.977 63.9013 237.977 64.8388C237.977 65.7869 237.615 66.6019 236.89 67.2837C236.176 67.9549 235.313 68.2905 234.301 68.2905ZM256.198 71.4545V76.5682H241.417V71.4545H256.198ZM244.772 65.5739H251.58V88.4574C251.58 89.0859 251.676 89.576 251.868 89.9276C252.059 90.2685 252.326 90.5082 252.667 90.6467C253.018 90.7852 253.423 90.8544 253.881 90.8544C254.201 90.8544 254.52 90.8278 254.84 90.7745C255.159 90.7106 255.404 90.6626 255.575 90.6307L256.646 95.6964C256.305 95.8029 255.825 95.9254 255.207 96.0639C254.589 96.2131 253.838 96.3036 252.954 96.3356C251.314 96.3995 249.875 96.1811 248.64 95.6804C247.414 95.1797 246.461 94.402 245.779 93.3473C245.097 92.2926 244.762 90.9609 244.772 89.3523V65.5739ZM260.633 96V71.4545H267.44V96H260.633ZM264.052 68.2905C263.04 68.2905 262.172 67.9549 261.448 67.2837C260.734 66.6019 260.377 65.7869 260.377 64.8388C260.377 63.9013 260.734 63.0969 261.448 62.4258C262.172 61.744 263.04 61.4031 264.052 61.4031C265.064 61.4031 265.927 61.744 266.641 62.4258C267.366 63.0969 267.728 63.9013 267.728 64.8388C267.728 65.7869 267.366 66.6019 266.641 67.2837C265.927 67.9549 265.064 68.2905 264.052 68.2905ZM295.777 71.4545L287.196 96H279.525L270.944 71.4545H278.135L283.233 89.0167H283.488L288.57 71.4545H295.777ZM309.656 96.4794C307.131 96.4794 304.957 95.968 303.136 94.9453C301.325 93.9119 299.929 92.4524 298.949 90.5668C297.969 88.6705 297.479 86.4279 297.479 83.8391C297.479 81.3143 297.969 79.0984 298.949 77.1914C299.929 75.2844 301.309 73.7983 303.088 72.733C304.878 71.6676 306.976 71.1349 309.384 71.1349C311.003 71.1349 312.511 71.396 313.906 71.918C315.313 72.4293 316.538 73.2017 317.582 74.2351C318.636 75.2685 319.457 76.5682 320.043 78.1342C320.629 79.6896 320.922 81.5114 320.922 83.5994V85.4691H300.195V81.2504H314.514C314.514 80.2702 314.301 79.402 313.874 78.6456C313.448 77.8892 312.857 77.2979 312.101 76.8718C311.355 76.435 310.487 76.2166 309.496 76.2166C308.462 76.2166 307.546 76.4563 306.747 76.9357C305.959 77.4045 305.341 78.0384 304.894 78.8374C304.446 79.6257 304.217 80.5046 304.206 81.4741V85.4851C304.206 86.6996 304.43 87.7489 304.878 88.6332C305.336 89.5174 305.98 90.1992 306.811 90.6786C307.642 91.158 308.628 91.3977 309.767 91.3977C310.524 91.3977 311.216 91.2912 311.845 91.0781C312.473 90.8651 313.011 90.5455 313.459 90.1193C313.906 89.6932 314.247 89.1712 314.482 88.5533L320.778 88.9688C320.458 90.4815 319.803 91.8026 318.812 92.9318C317.832 94.0504 316.564 94.924 315.009 95.5526C313.464 96.1705 311.68 96.4794 309.656 96.4794ZM335.907 96V63.2727H348.819C351.301 63.2727 353.416 63.7468 355.163 64.695C356.91 65.6325 358.242 66.9375 359.158 68.6101C360.085 70.272 360.548 72.1896 360.548 74.3629C360.548 76.5362 360.08 78.4538 359.142 80.1158C358.205 81.7777 356.846 83.0721 355.067 83.9989C353.299 84.9258 351.157 85.3892 348.643 85.3892H340.413V79.8441H347.525C348.856 79.8441 349.953 79.6151 350.816 79.157C351.69 78.6882 352.34 78.0437 352.766 77.2234C353.203 76.3924 353.421 75.4389 353.421 74.3629C353.421 73.2763 353.203 72.3281 352.766 71.5185C352.34 70.6982 351.69 70.0643 350.816 69.6168C349.943 69.1587 348.835 68.9297 347.493 68.9297H342.826V96H335.907ZM364.915 96V71.4545H371.515V75.7372H371.77C372.218 74.2138 372.969 73.0632 374.024 72.2855C375.078 71.4972 376.293 71.103 377.667 71.103C378.008 71.103 378.375 71.1243 378.77 71.1669C379.164 71.2095 379.51 71.2681 379.808 71.3427V77.3832C379.489 77.2873 379.047 77.2021 378.482 77.1275C377.917 77.0529 377.401 77.0156 376.932 77.0156C375.93 77.0156 375.036 77.234 374.247 77.6708C373.47 78.0969 372.852 78.6935 372.394 79.4606C371.946 80.2276 371.722 81.1119 371.722 82.1133V96H364.915ZM393.276 96.4794C390.793 96.4794 388.647 95.9521 386.836 94.8974C385.035 93.832 383.645 92.3512 382.665 90.4549C381.685 88.5479 381.195 86.3374 381.195 83.8232C381.195 81.2876 381.685 79.0717 382.665 77.1754C383.645 75.2685 385.035 73.7876 386.836 72.733C388.647 71.6676 390.793 71.1349 393.276 71.1349C395.758 71.1349 397.899 71.6676 399.7 72.733C401.511 73.7876 402.906 75.2685 403.886 77.1754C404.866 79.0717 405.357 81.2876 405.357 83.8232C405.357 86.3374 404.866 88.5479 403.886 90.4549C402.906 92.3512 401.511 93.832 399.7 94.8974C397.899 95.9521 395.758 96.4794 393.276 96.4794ZM393.308 91.206C394.437 91.206 395.38 90.8864 396.136 90.2472C396.892 89.5973 397.462 88.7131 397.846 87.5945C398.24 86.4759 398.437 85.2028 398.437 83.7752C398.437 82.3477 398.24 81.0746 397.846 79.956C397.462 78.8374 396.892 77.9531 396.136 77.3033C395.38 76.6534 394.437 76.3285 393.308 76.3285C392.168 76.3285 391.209 76.6534 390.431 77.3033C389.664 77.9531 389.083 78.8374 388.689 79.956C388.306 81.0746 388.114 82.3477 388.114 83.7752C388.114 85.2028 388.306 86.4759 388.689 87.5945C389.083 88.7131 389.664 89.5973 390.431 90.2472C391.209 90.8864 392.168 91.206 393.308 91.206ZM420.841 105.716C418.636 105.716 416.745 105.412 415.168 104.805C413.602 104.208 412.356 103.393 411.429 102.36C410.502 101.327 409.9 100.165 409.623 98.8764L415.919 98.0295C416.111 98.5195 416.415 98.9776 416.83 99.4038C417.246 99.8299 417.794 100.171 418.476 100.426C419.169 100.693 420.01 100.826 421.001 100.826C422.482 100.826 423.702 100.464 424.661 99.7393C425.63 99.0256 426.115 97.8271 426.115 96.1438V91.6534H425.827C425.529 92.3352 425.081 92.9798 424.485 93.587C423.888 94.1942 423.121 94.6896 422.184 95.0732C421.246 95.4567 420.127 95.6484 418.828 95.6484C416.985 95.6484 415.307 95.2223 413.794 94.37C412.292 93.5071 411.093 92.1914 410.199 90.4229C409.314 88.6438 408.872 86.396 408.872 83.6793C408.872 80.8988 409.325 78.5763 410.23 76.712C411.136 74.8477 412.34 73.4521 413.842 72.5252C415.355 71.5984 417.011 71.1349 418.812 71.1349C420.186 71.1349 421.337 71.3693 422.263 71.8381C423.19 72.2962 423.936 72.8714 424.501 73.5639C425.076 74.2457 425.518 74.9169 425.827 75.5774H426.083V71.4545H432.842V96.2397C432.842 98.3278 432.331 100.075 431.308 101.481C430.286 102.887 428.869 103.942 427.058 104.645C425.257 105.359 423.185 105.716 420.841 105.716ZM420.985 90.5348C422.082 90.5348 423.009 90.2631 423.766 89.7198C424.533 89.1658 425.119 88.3775 425.523 87.3548C425.939 86.3214 426.147 85.0856 426.147 83.6474C426.147 82.2092 425.944 80.9627 425.539 79.908C425.135 78.8427 424.549 78.017 423.782 77.4311C423.015 76.8452 422.082 76.5522 420.985 76.5522C419.866 76.5522 418.924 76.8558 418.157 77.4631C417.39 78.0597 416.809 78.8906 416.415 79.956C416.021 81.0213 415.824 82.2518 415.824 83.6474C415.824 85.0643 416.021 86.2894 416.415 87.3228C416.82 88.3455 417.4 89.1392 418.157 89.7038C418.924 90.2578 419.866 90.5348 420.985 90.5348ZM438.26 96V71.4545H444.859V75.7372H445.115C445.563 74.2138 446.314 73.0632 447.368 72.2855C448.423 71.4972 449.637 71.103 451.012 71.103C451.353 71.103 451.72 71.1243 452.114 71.1669C452.509 71.2095 452.855 71.2681 453.153 71.3427V77.3832C452.833 77.2873 452.391 77.2021 451.827 77.1275C451.262 77.0529 450.745 77.0156 450.277 77.0156C449.275 77.0156 448.38 77.234 447.592 77.6708C446.814 78.0969 446.196 78.6935 445.738 79.4606C445.291 80.2276 445.067 81.1119 445.067 82.1133V96H438.26ZM462.969 96.4634C461.403 96.4634 460.007 96.1918 458.782 95.6484C457.557 95.0945 456.587 94.2795 455.874 93.2035C455.171 92.1168 454.819 90.7638 454.819 89.1445C454.819 87.7809 455.069 86.6357 455.57 85.7088C456.071 84.782 456.753 84.0362 457.616 83.4716C458.478 82.907 459.459 82.4808 460.556 82.1932C461.664 81.9055 462.825 81.7031 464.04 81.5859C465.467 81.4368 466.618 81.2983 467.491 81.1705C468.365 81.032 468.999 80.8295 469.393 80.5632C469.787 80.2969 469.984 79.9027 469.984 79.3807V79.2848C469.984 78.2727 469.665 77.4897 469.025 76.9357C468.397 76.3817 467.502 76.1048 466.341 76.1048C465.116 76.1048 464.141 76.3764 463.416 76.9197C462.692 77.4524 462.212 78.1236 461.978 78.9332L455.682 78.4219C456.002 76.9304 456.63 75.6413 457.568 74.5547C458.505 73.4574 459.714 72.6158 461.195 72.0298C462.687 71.4332 464.412 71.1349 466.373 71.1349C467.736 71.1349 469.041 71.2947 470.288 71.6143C471.545 71.9339 472.658 72.4293 473.628 73.1005C474.608 73.7717 475.38 74.6346 475.945 75.6893C476.509 76.7333 476.792 77.9851 476.792 79.4446V96H470.336V92.5962H470.144C469.75 93.3633 469.222 94.0398 468.562 94.6257C467.901 95.201 467.108 95.6538 466.181 95.984C465.254 96.3036 464.183 96.4634 462.969 96.4634ZM464.918 91.7653C465.92 91.7653 466.804 91.5682 467.571 91.174C468.338 90.7692 468.94 90.2259 469.377 89.544C469.814 88.8622 470.032 88.0898 470.032 87.2269V84.6222C469.819 84.7607 469.526 84.8885 469.153 85.0057C468.791 85.1122 468.381 85.2134 467.923 85.3093C467.465 85.3945 467.006 85.4744 466.548 85.549C466.09 85.6129 465.675 85.6715 465.302 85.7248C464.503 85.842 463.805 86.0284 463.209 86.2841C462.612 86.5398 462.149 86.886 461.818 87.3228C461.488 87.7489 461.323 88.2816 461.323 88.9208C461.323 89.8477 461.658 90.5561 462.33 91.0462C463.011 91.5256 463.874 91.7653 464.918 91.7653ZM482.073 96V71.4545H488.561V75.7852H488.849C489.36 74.3469 490.212 73.2124 491.405 72.3814C492.599 71.5504 494.026 71.1349 495.688 71.1349C497.371 71.1349 498.804 71.5558 499.987 72.3974C501.169 73.2283 501.958 74.3576 502.352 75.7852H502.608C503.108 74.3789 504.014 73.255 505.324 72.4134C506.645 71.5611 508.206 71.1349 510.006 71.1349C512.297 71.1349 514.156 71.8647 515.583 73.3242C517.022 74.7731 517.741 76.8292 517.741 79.4925V96H510.949V80.8349C510.949 79.4712 510.587 78.4485 509.862 77.7667C509.138 77.0849 508.233 76.744 507.146 76.744C505.91 76.744 504.946 77.1381 504.253 77.9265C503.561 78.7042 503.215 79.7322 503.215 81.0107V96H496.615V80.6911C496.615 79.4872 496.269 78.5284 495.576 77.8146C494.894 77.1009 493.994 76.744 492.876 76.744C492.119 76.744 491.437 76.9357 490.83 77.3192C490.234 77.6921 489.759 78.2195 489.408 78.9013C489.056 79.5724 488.881 80.3608 488.881 81.2663V96H482.073ZM523.118 96V71.4545H529.606V75.7852H529.894C530.405 74.3469 531.257 73.2124 532.45 72.3814C533.644 71.5504 535.071 71.1349 536.733 71.1349C538.416 71.1349 539.849 71.5558 541.032 72.3974C542.214 73.2283 543.003 74.3576 543.397 75.7852H543.652C544.153 74.3789 545.059 73.255 546.369 72.4134C547.69 71.5611 549.251 71.1349 551.051 71.1349C553.342 71.1349 555.201 71.8647 556.628 73.3242C558.066 74.7731 558.786 76.8292 558.786 79.4925V96H551.994V80.8349C551.994 79.4712 551.632 78.4485 550.907 77.7667C550.183 77.0849 549.277 76.744 548.191 76.744C546.955 76.744 545.991 77.1381 545.298 77.9265C544.606 78.7042 544.26 79.7322 544.26 81.0107V96H537.66V80.6911C537.66 79.4872 537.314 78.5284 536.621 77.8146C535.939 77.1009 535.039 76.744 533.921 76.744C533.164 76.744 532.482 76.9357 531.875 77.3192C531.278 77.6921 530.804 78.2195 530.453 78.9013C530.101 79.5724 529.926 80.3608 529.926 81.2663V96H523.118ZM564.163 96V71.4545H570.97V96H564.163ZM567.583 68.2905C566.571 68.2905 565.702 67.9549 564.978 67.2837C564.264 66.6019 563.907 65.7869 563.907 64.8388C563.907 63.9013 564.264 63.0969 564.978 62.4258C565.702 61.744 566.571 61.4031 567.583 61.4031C568.595 61.4031 569.458 61.744 570.171 62.4258C570.896 63.0969 571.258 63.9013 571.258 64.8388C571.258 65.7869 570.896 66.6019 570.171 67.2837C569.458 67.9549 568.595 68.2905 567.583 68.2905ZM583.231 81.8097V96H576.424V71.4545H582.912V75.7852H583.199C583.743 74.3576 584.653 73.2283 585.932 72.3974C587.21 71.5558 588.76 71.1349 590.582 71.1349C592.287 71.1349 593.773 71.5078 595.04 72.2536C596.308 72.9993 597.294 74.0646 597.997 75.4496C598.7 76.8239 599.051 78.4645 599.051 80.3714V96H592.244V81.5859C592.255 80.0838 591.871 78.9119 591.093 78.0703C590.316 77.218 589.245 76.7919 587.881 76.7919C586.965 76.7919 586.156 76.989 585.452 77.3832C584.76 77.7773 584.217 78.3526 583.822 79.109C583.439 79.8548 583.242 80.755 583.231 81.8097ZM615.475 105.716C613.27 105.716 611.379 105.412 609.802 104.805C608.236 104.208 606.99 103.393 606.063 102.36C605.136 101.327 604.534 100.165 604.257 98.8764L610.553 98.0295C610.745 98.5195 611.049 98.9776 611.464 99.4038C611.88 99.8299 612.428 100.171 613.11 100.426C613.802 100.693 614.644 100.826 615.635 100.826C617.116 100.826 618.335 100.464 619.294 99.7393C620.264 99.0256 620.748 97.8271 620.748 96.1438V91.6534H620.461C620.163 92.3352 619.715 92.9798 619.119 93.587C618.522 94.1942 617.755 94.6896 616.817 95.0732C615.88 95.4567 614.761 95.6484 613.462 95.6484C611.619 95.6484 609.941 95.2223 608.428 94.37C606.926 93.5071 605.727 92.1914 604.832 90.4229C603.948 88.6438 603.506 86.396 603.506 83.6793C603.506 80.8988 603.959 78.5763 604.864 76.712C605.77 74.8477 606.974 73.4521 608.476 72.5252C609.989 71.5984 611.645 71.1349 613.446 71.1349C614.82 71.1349 615.97 71.3693 616.897 71.8381C617.824 72.2962 618.57 72.8714 619.135 73.5639C619.71 74.2457 620.152 74.9169 620.461 75.5774H620.717V71.4545H627.476V96.2397C627.476 98.3278 626.965 100.075 625.942 101.481C624.919 102.887 623.502 103.942 621.691 104.645C619.891 105.359 617.819 105.716 615.475 105.716ZM615.619 90.5348C616.716 90.5348 617.643 90.2631 618.399 89.7198C619.166 89.1658 619.752 88.3775 620.157 87.3548C620.573 86.3214 620.78 85.0856 620.78 83.6474C620.78 82.2092 620.578 80.9627 620.173 79.908C619.768 78.8427 619.182 78.017 618.415 77.4311C617.648 76.8452 616.716 76.5522 615.619 76.5522C614.5 76.5522 613.557 76.8558 612.79 77.4631C612.023 78.0597 611.443 78.8906 611.049 79.956C610.654 81.0213 610.457 82.2518 610.457 83.6474C610.457 85.0643 610.654 86.2894 611.049 87.3228C611.453 88.3455 612.034 89.1392 612.79 89.7038C613.557 90.2578 614.5 90.5348 615.619 90.5348Z" fill="#EAEAEA"/>
</svg>
