<svg width="437" height="159" viewBox="0 0 437 159" fill="none" xmlns="http://www.w3.org/2000/svg">
<rect width="437" height="159" rx="60" fill="#DFC064"/>
<path d="M61.6643 98H50.0627V65.2727H61.7602C65.0521 65.2727 67.8859 65.9279 70.2616 67.2383C72.6373 68.538 74.4644 70.4077 75.7428 72.8473C77.0318 75.2869 77.6764 78.206 77.6764 81.6044C77.6764 85.0135 77.0318 87.9432 75.7428 90.3935C74.4644 92.8437 72.6266 94.7241 70.2296 96.0344C67.8433 97.3448 64.9881 98 61.6643 98ZM56.9821 92.0714H61.3766C63.4221 92.0714 65.1426 91.7092 66.5382 90.9847C67.9445 90.2496 68.9992 89.1151 69.7023 87.581C70.4161 86.0362 70.7729 84.044 70.7729 81.6044C70.7729 79.1861 70.4161 77.2099 69.7023 75.6758C68.9992 74.1417 67.9498 73.0124 66.5542 72.288C65.1586 71.5636 63.4381 71.2013 61.3926 71.2013H56.9821V92.0714ZM89.6734 98.4634C88.1074 98.4634 86.7118 98.1918 85.4866 97.6484C84.2615 97.0945 83.292 96.2795 82.5783 95.2035C81.8751 94.1168 81.5236 92.7638 81.5236 91.1445C81.5236 89.7809 81.7739 88.6357 82.2746 87.7088C82.7753 86.782 83.4572 86.0362 84.3201 85.4716C85.183 84.907 86.1631 84.4808 87.2604 84.1932C88.3684 83.9055 89.5296 83.7031 90.7441 83.5859C92.1717 83.4368 93.3222 83.2983 94.1958 83.1705C95.0694 83.032 95.7033 82.8295 96.0974 82.5632C96.4916 82.2969 96.6887 81.9027 96.6887 81.3807V81.2848C96.6887 80.2727 96.3691 79.4897 95.7299 78.9357C95.1013 78.3817 94.2065 78.1048 93.0452 78.1048C91.8201 78.1048 90.8453 78.3764 90.1209 78.9197C89.3964 79.4524 88.917 80.1236 88.6827 80.9332L82.3865 80.4219C82.7061 78.9304 83.3347 77.6413 84.2722 76.5547C85.2097 75.4574 86.4188 74.6158 87.8996 74.0298C89.3911 73.4332 91.117 73.1349 93.0772 73.1349C94.4408 73.1349 95.7459 73.2947 96.9923 73.6143C98.2494 73.9339 99.3627 74.4293 100.332 75.1005C101.312 75.7717 102.085 76.6346 102.649 77.6893C103.214 78.7333 103.496 79.9851 103.496 81.4446V98H97.0403V94.5962H96.8485C96.4543 95.3633 95.927 96.0398 95.2665 96.6257C94.606 97.201 93.8123 97.6538 92.8854 97.984C91.9586 98.3036 90.8879 98.4634 89.6734 98.4634ZM91.623 93.7653C92.6244 93.7653 93.5087 93.5682 94.2757 93.174C95.0427 92.7692 95.6447 92.2259 96.0815 91.544C96.5182 90.8622 96.7366 90.0898 96.7366 89.2269V86.6222C96.5236 86.7607 96.2306 86.8885 95.8577 87.0057C95.4955 87.1122 95.0854 87.2134 94.6273 87.3093C94.1692 87.3945 93.7111 87.4744 93.253 87.549C92.7949 87.6129 92.3794 87.6715 92.0065 87.7248C91.2075 87.842 90.5097 88.0284 89.9131 88.2841C89.3165 88.5398 88.8531 88.886 88.5229 89.3228C88.1926 89.7489 88.0275 90.2816 88.0275 90.9208C88.0275 91.8477 88.3631 92.5561 89.0342 93.0462C89.716 93.5256 90.579 93.7653 91.623 93.7653ZM121.833 73.4545V78.5682H107.052V73.4545H121.833ZM110.408 67.5739H117.215V90.4574C117.215 91.0859 117.311 91.576 117.503 91.9276C117.695 92.2685 117.961 92.5082 118.302 92.6467C118.653 92.7852 119.058 92.8544 119.516 92.8544C119.836 92.8544 120.155 92.8278 120.475 92.7745C120.795 92.7106 121.04 92.6626 121.21 92.6307L122.281 97.6964C121.94 97.8029 121.461 97.9254 120.843 98.0639C120.225 98.2131 119.474 98.3036 118.589 98.3356C116.949 98.3995 115.511 98.1811 114.275 97.6804C113.05 97.1797 112.096 96.402 111.414 95.3473C110.733 94.2926 110.397 92.9609 110.408 91.3523V67.5739ZM133.267 98.4634C131.701 98.4634 130.306 98.1918 129.08 97.6484C127.855 97.0945 126.886 96.2795 126.172 95.2035C125.469 94.1168 125.117 92.7638 125.117 91.1445C125.117 89.7809 125.368 88.6357 125.868 87.7088C126.369 86.782 127.051 86.0362 127.914 85.4716C128.777 84.907 129.757 84.4808 130.854 84.1932C131.962 83.9055 133.123 83.7031 134.338 83.5859C135.765 83.4368 136.916 83.2983 137.79 83.1705C138.663 83.032 139.297 82.8295 139.691 82.5632C140.085 82.2969 140.282 81.9027 140.282 81.3807V81.2848C140.282 80.2727 139.963 79.4897 139.324 78.9357C138.695 78.3817 137.8 78.1048 136.639 78.1048C135.414 78.1048 134.439 78.3764 133.715 78.9197C132.99 79.4524 132.511 80.1236 132.276 80.9332L125.98 80.4219C126.3 78.9304 126.928 77.6413 127.866 76.5547C128.803 75.4574 130.013 74.6158 131.493 74.0298C132.985 73.4332 134.711 73.1349 136.671 73.1349C138.035 73.1349 139.34 73.2947 140.586 73.6143C141.843 73.9339 142.956 74.4293 143.926 75.1005C144.906 75.7717 145.678 76.6346 146.243 77.6893C146.808 78.7333 147.09 79.9851 147.09 81.4446V98H140.634V94.5962H140.442C140.048 95.3633 139.521 96.0398 138.86 96.6257C138.2 97.201 137.406 97.6538 136.479 97.984C135.552 98.3036 134.482 98.4634 133.267 98.4634ZM135.217 93.7653C136.218 93.7653 137.102 93.5682 137.869 93.174C138.636 92.7692 139.238 92.2259 139.675 91.544C140.112 90.8622 140.33 90.0898 140.33 89.2269V86.6222C140.117 86.7607 139.824 86.8885 139.451 87.0057C139.089 87.1122 138.679 87.2134 138.221 87.3093C137.763 87.3945 137.305 87.4744 136.847 87.549C136.389 87.6129 135.973 87.6715 135.6 87.7248C134.801 87.842 134.103 88.0284 133.507 88.2841C132.91 88.5398 132.447 88.886 132.117 89.3228C131.786 89.7489 131.621 90.2816 131.621 90.9208C131.621 91.8477 131.957 92.5561 132.628 93.0462C133.31 93.5256 134.173 93.7653 135.217 93.7653ZM180.668 74.685C180.54 73.396 179.992 72.3945 179.022 71.6808C178.053 70.967 176.737 70.6101 175.075 70.6101C173.946 70.6101 172.992 70.7699 172.215 71.0895C171.437 71.3984 170.84 71.8299 170.425 72.3839C170.02 72.9379 169.818 73.5664 169.818 74.2695C169.796 74.8555 169.919 75.3668 170.185 75.8036C170.462 76.2404 170.84 76.6186 171.32 76.9382C171.799 77.2472 172.353 77.5188 172.982 77.7532C173.61 77.9769 174.281 78.1687 174.995 78.3285L177.936 79.0316C179.363 79.3512 180.674 79.7773 181.867 80.31C183.06 80.8427 184.093 81.4979 184.967 82.2756C185.84 83.0533 186.517 83.9695 186.996 85.0241C187.486 86.0788 187.737 87.288 187.747 88.6516C187.737 90.6545 187.225 92.391 186.213 93.8612C185.212 95.3207 183.763 96.4553 181.867 97.2649C179.981 98.0639 177.707 98.4634 175.043 98.4634C172.401 98.4634 170.1 98.0586 168.14 97.2489C166.19 96.4393 164.667 95.2408 163.569 93.6534C162.483 92.0554 161.913 90.0792 161.86 87.7248H168.555C168.63 88.8221 168.944 89.7383 169.498 90.4734C170.063 91.1978 170.814 91.7464 171.751 92.1193C172.699 92.4815 173.77 92.6626 174.963 92.6626C176.135 92.6626 177.153 92.4922 178.015 92.1513C178.889 91.8104 179.566 91.3363 180.045 90.729C180.524 90.1218 180.764 89.424 180.764 88.6357C180.764 87.9006 180.546 87.2827 180.109 86.782C179.683 86.2812 179.054 85.8551 178.223 85.5036C177.403 85.152 176.396 84.8324 175.203 84.5447L171.639 83.6499C168.88 82.9787 166.702 81.9293 165.104 80.5018C163.506 79.0742 162.712 77.1513 162.723 74.733C162.712 72.7514 163.239 71.0202 164.305 69.5394C165.381 68.0586 166.856 66.9027 168.731 66.0717C170.606 65.2408 172.737 64.8253 175.123 64.8253C177.552 64.8253 179.672 65.2408 181.483 66.0717C183.305 66.9027 184.722 68.0586 185.734 69.5394C186.746 71.0202 187.268 72.7354 187.3 74.685H180.668ZM205.33 73.4545V78.5682H190.548V73.4545H205.33ZM193.904 67.5739H200.711V90.4574C200.711 91.0859 200.807 91.576 200.999 91.9276C201.191 92.2685 201.457 92.5082 201.798 92.6467C202.149 92.7852 202.554 92.8544 203.012 92.8544C203.332 92.8544 203.652 92.8278 203.971 92.7745C204.291 92.7106 204.536 92.6626 204.706 92.6307L205.777 97.6964C205.436 97.8029 204.957 97.9254 204.339 98.0639C203.721 98.2131 202.97 98.3036 202.086 98.3356C200.445 98.3995 199.007 98.1811 197.771 97.6804C196.546 97.1797 195.592 96.402 194.91 95.3473C194.229 94.2926 193.893 92.9609 193.904 91.3523V67.5739ZM209.764 98V73.4545H216.364V77.7372H216.619C217.067 76.2138 217.818 75.0632 218.873 74.2855C219.927 73.4972 221.142 73.103 222.516 73.103C222.857 73.103 223.225 73.1243 223.619 73.1669C224.013 73.2095 224.359 73.2681 224.657 73.3427V79.3832C224.338 79.2873 223.896 79.2021 223.331 79.1275C222.766 79.0529 222.25 79.0156 221.781 79.0156C220.78 79.0156 219.885 79.234 219.096 79.6708C218.319 80.0969 217.701 80.6935 217.243 81.4606C216.795 82.2276 216.572 83.1119 216.572 84.1133V98H209.764ZM243.917 87.549V73.4545H250.725V98H244.189V93.5415H243.933C243.379 94.9798 242.458 96.1357 241.169 97.0092C239.89 97.8828 238.33 98.3196 236.487 98.3196C234.846 98.3196 233.403 97.9467 232.156 97.201C230.91 96.4553 229.935 95.3952 229.232 94.021C228.539 92.6467 228.188 91.0007 228.177 89.0831V73.4545H234.985V87.8686C234.995 89.3175 235.384 90.4627 236.151 91.3043C236.918 92.146 237.946 92.5668 239.235 92.5668C240.056 92.5668 240.823 92.3803 241.536 92.0075C242.25 91.6239 242.826 91.0593 243.262 90.3136C243.71 89.5678 243.928 88.6463 243.917 87.549ZM267.26 98.4794C264.746 98.4794 262.584 97.9467 260.773 96.8814C258.972 95.8054 257.587 94.3139 256.618 92.407C255.659 90.5 255.179 88.3054 255.179 85.8232C255.179 83.3089 255.664 81.1037 256.634 79.2074C257.614 77.3004 259.004 75.8143 260.804 74.7489C262.605 73.6729 264.746 73.1349 267.228 73.1349C269.37 73.1349 271.245 73.5238 272.853 74.3015C274.462 75.0792 275.735 76.1712 276.673 77.5774C277.61 78.9837 278.127 80.6349 278.223 82.5312H271.799C271.618 81.3061 271.138 80.3207 270.361 79.5749C269.594 78.8185 268.587 78.4403 267.34 78.4403C266.286 78.4403 265.364 78.728 264.576 79.3033C263.798 79.8679 263.191 80.6935 262.754 81.7802C262.317 82.8668 262.099 84.1825 262.099 85.7273C262.099 87.2933 262.312 88.625 262.738 89.7223C263.175 90.8196 263.787 91.6559 264.576 92.2312C265.364 92.8065 266.286 93.0941 267.34 93.0941C268.118 93.0941 268.816 92.9343 269.434 92.6147C270.062 92.2951 270.579 91.8317 270.984 91.2244C271.399 90.6065 271.671 89.8661 271.799 89.0032H278.223C278.116 90.8782 277.605 92.5295 276.689 93.957C275.783 95.3739 274.531 96.4819 272.933 97.2809C271.335 98.0799 269.444 98.4794 267.26 98.4794ZM295.637 73.4545V78.5682H280.856V73.4545H295.637ZM284.211 67.5739H291.019V90.4574C291.019 91.0859 291.115 91.576 291.307 91.9276C291.498 92.2685 291.765 92.5082 292.106 92.6467C292.457 92.7852 292.862 92.8544 293.32 92.8544C293.64 92.8544 293.959 92.8278 294.279 92.7745C294.598 92.7106 294.843 92.6626 295.014 92.6307L296.085 97.6964C295.744 97.8029 295.264 97.9254 294.646 98.0639C294.028 98.2131 293.277 98.3036 292.393 98.3356C290.753 98.3995 289.314 98.1811 288.079 97.6804C286.853 97.1797 285.9 96.402 285.218 95.3473C284.536 94.2926 284.201 92.9609 284.211 91.3523V67.5739ZM315.812 87.549V73.4545H322.62V98H316.084V93.5415H315.828C315.274 94.9798 314.352 96.1357 313.063 97.0092C311.785 97.8828 310.224 98.3196 308.381 98.3196C306.741 98.3196 305.297 97.9467 304.051 97.201C302.804 96.4553 301.829 95.3952 301.126 94.021C300.434 92.6467 300.082 91.0007 300.072 89.0831V73.4545H306.879V87.8686C306.89 89.3175 307.279 90.4627 308.046 91.3043C308.813 92.146 309.841 92.5668 311.13 92.5668C311.95 92.5668 312.717 92.3803 313.431 92.0075C314.145 91.6239 314.72 91.0593 315.157 90.3136C315.604 89.5678 315.823 88.6463 315.812 87.549ZM328.065 98V73.4545H334.665V77.7372H334.92C335.368 76.2138 336.119 75.0632 337.173 74.2855C338.228 73.4972 339.443 73.103 340.817 73.103C341.158 73.103 341.525 73.1243 341.92 73.1669C342.314 73.2095 342.66 73.2681 342.958 73.3427V79.3832C342.639 79.2873 342.197 79.2021 341.632 79.1275C341.067 79.0529 340.551 79.0156 340.082 79.0156C339.08 79.0156 338.186 79.234 337.397 79.6708C336.619 80.0969 336.002 80.6935 335.543 81.4606C335.096 82.2276 334.872 83.1119 334.872 84.1133V98H328.065ZM356.521 98.4794C353.996 98.4794 351.823 97.968 350.001 96.9453C348.19 95.9119 346.795 94.4524 345.815 92.5668C344.835 90.6705 344.345 88.4279 344.345 85.8391C344.345 83.3143 344.835 81.0984 345.815 79.1914C346.795 77.2844 348.174 75.7983 349.954 74.733C351.743 73.6676 353.842 73.1349 356.25 73.1349C357.869 73.1349 359.376 73.396 360.772 73.918C362.178 74.4293 363.403 75.2017 364.447 76.2351C365.502 77.2685 366.322 78.5682 366.908 80.1342C367.494 81.6896 367.787 83.5114 367.787 85.5994V87.4691H347.061V83.2504H361.379C361.379 82.2702 361.166 81.402 360.74 80.6456C360.314 79.8892 359.723 79.2979 358.966 78.8718C358.221 78.435 357.352 78.2166 356.362 78.2166C355.328 78.2166 354.412 78.4563 353.613 78.9357C352.825 79.4045 352.207 80.0384 351.759 80.8374C351.312 81.6257 351.083 82.5046 351.072 83.4741V87.4851C351.072 88.6996 351.296 89.7489 351.743 90.6332C352.201 91.5174 352.846 92.1992 353.677 92.6786C354.508 93.158 355.493 93.3977 356.633 93.3977C357.39 93.3977 358.082 93.2912 358.711 93.0781C359.339 92.8651 359.877 92.5455 360.325 92.1193C360.772 91.6932 361.113 91.1712 361.347 90.5533L367.644 90.9688C367.324 92.4815 366.669 93.8026 365.678 94.9318C364.698 96.0504 363.43 96.924 361.875 97.5526C360.33 98.1705 358.545 98.4794 356.521 98.4794ZM392.652 80.4538L386.42 80.8374C386.314 80.3047 386.085 79.8253 385.733 79.3991C385.381 78.9624 384.918 78.6161 384.343 78.3604C383.778 78.0941 383.102 77.9609 382.313 77.9609C381.259 77.9609 380.369 78.1847 379.645 78.6321C378.92 79.0689 378.558 79.6548 378.558 80.3899C378.558 80.9759 378.792 81.4712 379.261 81.8761C379.73 82.2809 380.534 82.6058 381.674 82.8509L386.117 83.7457C388.503 84.2358 390.282 85.0241 391.454 86.1108C392.626 87.1974 393.212 88.625 393.212 90.3935C393.212 92.0021 392.738 93.4137 391.789 94.6282C390.852 95.8427 389.563 96.7908 387.922 97.4727C386.292 98.1438 384.412 98.4794 382.281 98.4794C379.032 98.4794 376.443 97.8029 374.515 96.4499C372.597 95.0863 371.473 93.2326 371.143 90.8888L377.839 90.5373C378.041 91.5281 378.531 92.2844 379.309 92.8065C380.087 93.3178 381.083 93.5735 382.297 93.5735C383.49 93.5735 384.449 93.3445 385.174 92.8864C385.909 92.4176 386.282 91.8157 386.292 91.0806C386.282 90.4627 386.021 89.9567 385.509 89.5625C384.998 89.1577 384.21 88.8487 383.144 88.6357L378.894 87.7887C376.496 87.3093 374.712 86.4783 373.54 85.2958C372.379 84.1133 371.798 82.6058 371.798 80.7734C371.798 79.1967 372.224 77.8384 373.077 76.6985C373.94 75.5586 375.149 74.6797 376.704 74.0618C378.27 73.4439 380.103 73.1349 382.201 73.1349C385.302 73.1349 387.741 73.7901 389.52 75.1005C391.31 76.4109 392.354 78.1953 392.652 80.4538Z" fill="#EAEAEA"/>
</svg>
