<svg width="437" height="159" viewBox="0 0 437 159" fill="none" xmlns="http://www.w3.org/2000/svg">
<rect width="437" height="159" rx="60" fill="#869360"/>
<path d="M131.135 96H119.534V63.2727H131.231C134.523 63.2727 137.357 63.9279 139.733 65.2383C142.108 66.538 143.935 68.4077 145.214 70.8473C146.503 73.2869 147.147 76.206 147.147 79.6044C147.147 83.0135 146.503 85.9432 145.214 88.3935C143.935 90.8437 142.098 92.7241 139.701 94.0344C137.314 95.3448 134.459 96 131.135 96ZM126.453 90.0714H130.848C132.893 90.0714 134.614 89.7092 136.009 88.9847C137.415 88.2496 138.47 87.1151 139.173 85.581C139.887 84.0362 140.244 82.044 140.244 79.6044C140.244 77.1861 139.887 75.2099 139.173 73.6758C138.47 72.1417 137.421 71.0124 136.025 70.288C134.63 69.5636 132.909 69.2013 130.864 69.2013H126.453V90.0714ZM159.144 96.4634C157.578 96.4634 156.183 96.1918 154.958 95.6484C153.732 95.0945 152.763 94.2795 152.049 93.2035C151.346 92.1168 150.995 90.7638 150.995 89.1445C150.995 87.7809 151.245 86.6357 151.746 85.7088C152.246 84.782 152.928 84.0362 153.791 83.4716C154.654 82.907 155.634 82.4808 156.731 82.1932C157.839 81.9055 159.001 81.7031 160.215 81.5859C161.643 81.4368 162.793 81.2983 163.667 81.1705C164.54 81.032 165.174 80.8295 165.568 80.5632C165.963 80.2969 166.16 79.9027 166.16 79.3807V79.2848C166.16 78.2727 165.84 77.4897 165.201 76.9357C164.572 76.3817 163.677 76.1048 162.516 76.1048C161.291 76.1048 160.316 76.3764 159.592 76.9197C158.867 77.4524 158.388 78.1236 158.154 78.9332L151.857 78.4219C152.177 76.9304 152.806 75.6413 153.743 74.5547C154.681 73.4574 155.89 72.6158 157.371 72.0298C158.862 71.4332 160.588 71.1349 162.548 71.1349C163.912 71.1349 165.217 71.2947 166.463 71.6143C167.72 71.9339 168.834 72.4293 169.803 73.1005C170.783 73.7717 171.556 74.6346 172.12 75.6893C172.685 76.7333 172.967 77.9851 172.967 79.4446V96H166.511V92.5962H166.319C165.925 93.3633 165.398 94.0398 164.737 94.6257C164.077 95.201 163.283 95.6538 162.356 95.984C161.43 96.3036 160.359 96.4634 159.144 96.4634ZM161.094 91.7653C162.095 91.7653 162.98 91.5682 163.747 91.174C164.514 90.7692 165.116 90.2259 165.552 89.544C165.989 88.8622 166.208 88.0898 166.208 87.2269V84.6222C165.995 84.7607 165.702 84.8885 165.329 85.0057C164.967 85.1122 164.556 85.2134 164.098 85.3093C163.64 85.3945 163.182 85.4744 162.724 85.549C162.266 85.6129 161.85 85.6715 161.478 85.7248C160.679 85.842 159.981 86.0284 159.384 86.2841C158.788 86.5398 158.324 86.886 157.994 87.3228C157.664 87.7489 157.498 88.2816 157.498 88.9208C157.498 89.8477 157.834 90.5561 158.505 91.0462C159.187 91.5256 160.05 91.7653 161.094 91.7653ZM191.304 71.4545V76.5682H176.523V71.4545H191.304ZM179.879 65.5739H186.686V88.4574C186.686 89.0859 186.782 89.576 186.974 89.9276C187.166 90.2685 187.432 90.5082 187.773 90.6467C188.124 90.7852 188.529 90.8544 188.987 90.8544C189.307 90.8544 189.626 90.8278 189.946 90.7745C190.266 90.7106 190.511 90.6626 190.681 90.6307L191.752 95.6964C191.411 95.8029 190.932 95.9254 190.314 96.0639C189.696 96.2131 188.945 96.3036 188.06 96.3356C186.42 96.3995 184.982 96.1811 183.746 95.6804C182.521 95.1797 181.567 94.402 180.885 93.3473C180.204 92.2926 179.868 90.9609 179.879 89.3523V65.5739ZM202.738 96.4634C201.172 96.4634 199.777 96.1918 198.551 95.6484C197.326 95.0945 196.357 94.2795 195.643 93.2035C194.94 92.1168 194.588 90.7638 194.588 89.1445C194.588 87.7809 194.839 86.6357 195.339 85.7088C195.84 84.782 196.522 84.0362 197.385 83.4716C198.248 82.907 199.228 82.4808 200.325 82.1932C201.433 81.9055 202.594 81.7031 203.809 81.5859C205.236 81.4368 206.387 81.2983 207.261 81.1705C208.134 81.032 208.768 80.8295 209.162 80.5632C209.556 80.2969 209.753 79.9027 209.753 79.3807V79.2848C209.753 78.2727 209.434 77.4897 208.795 76.9357C208.166 76.3817 207.271 76.1048 206.11 76.1048C204.885 76.1048 203.91 76.3764 203.186 76.9197C202.461 77.4524 201.982 78.1236 201.747 78.9332L195.451 78.4219C195.771 76.9304 196.399 75.6413 197.337 74.5547C198.274 73.4574 199.484 72.6158 200.964 72.0298C202.456 71.4332 204.182 71.1349 206.142 71.1349C207.506 71.1349 208.811 71.2947 210.057 71.6143C211.314 71.9339 212.427 72.4293 213.397 73.1005C214.377 73.7717 215.149 74.6346 215.714 75.6893C216.279 76.7333 216.561 77.9851 216.561 79.4446V96H210.105V92.5962H209.913C209.519 93.3633 208.992 94.0398 208.331 94.6257C207.671 95.201 206.877 95.6538 205.95 95.984C205.023 96.3036 203.953 96.4634 202.738 96.4634ZM204.688 91.7653C205.689 91.7653 206.573 91.5682 207.34 91.174C208.107 90.7692 208.709 90.2259 209.146 89.544C209.583 88.8622 209.801 88.0898 209.801 87.2269V84.6222C209.588 84.7607 209.295 84.8885 208.922 85.0057C208.56 85.1122 208.15 85.2134 207.692 85.3093C207.234 85.3945 206.776 85.4744 206.318 85.549C205.86 85.6129 205.444 85.6715 205.071 85.7248C204.272 85.842 203.574 86.0284 202.978 86.2841C202.381 86.5398 201.918 86.886 201.588 87.3228C201.257 87.7489 201.092 88.2816 201.092 88.9208C201.092 89.8477 201.428 90.5561 202.099 91.0462C202.781 91.5256 203.644 91.7653 204.688 91.7653ZM221.97 96V63.2727H228.778V75.5774H228.986C229.284 74.9169 229.715 74.2457 230.28 73.5639C230.855 72.8714 231.601 72.2962 232.517 71.8381C233.444 71.3693 234.595 71.1349 235.969 71.1349C237.759 71.1349 239.41 71.6037 240.923 72.5412C242.435 73.468 243.645 74.869 244.55 76.744C245.456 78.6083 245.908 80.9467 245.908 83.7592C245.908 86.4972 245.466 88.8089 244.582 90.6946C243.709 92.5696 242.515 93.9918 241.003 94.9613C239.5 95.9201 237.817 96.3995 235.953 96.3995C234.632 96.3995 233.508 96.1811 232.581 95.7443C231.665 95.3075 230.914 94.7589 230.328 94.0984C229.742 93.4272 229.294 92.7507 228.986 92.0689H228.682V96H221.97ZM228.634 83.7273C228.634 85.1868 228.836 86.4599 229.241 87.5465C229.646 88.6332 230.232 89.4801 230.999 90.0874C231.766 90.6839 232.698 90.9822 233.796 90.9822C234.903 90.9822 235.841 90.6786 236.608 90.0714C237.375 89.4535 237.956 88.6012 238.35 87.5146C238.755 86.4173 238.957 85.1548 238.957 83.7273C238.957 82.3104 238.76 81.0639 238.366 79.9879C237.972 78.9119 237.391 78.0703 236.624 77.4631C235.857 76.8558 234.914 76.5522 233.796 76.5522C232.688 76.5522 231.75 76.8452 230.983 77.4311C230.227 78.017 229.646 78.848 229.241 79.924C228.836 81 228.634 82.2678 228.634 83.7273ZM257.45 96.4634C255.884 96.4634 254.488 96.1918 253.263 95.6484C252.038 95.0945 251.069 94.2795 250.355 93.2035C249.652 92.1168 249.3 90.7638 249.3 89.1445C249.3 87.7809 249.551 86.6357 250.051 85.7088C250.552 84.782 251.234 84.0362 252.097 83.4716C252.96 82.907 253.94 82.4808 255.037 82.1932C256.145 81.9055 257.306 81.7031 258.521 81.5859C259.948 81.4368 261.099 81.2983 261.972 81.1705C262.846 81.032 263.48 80.8295 263.874 80.5632C264.268 80.2969 264.465 79.9027 264.465 79.3807V79.2848C264.465 78.2727 264.146 77.4897 263.507 76.9357C262.878 76.3817 261.983 76.1048 260.822 76.1048C259.597 76.1048 258.622 76.3764 257.898 76.9197C257.173 77.4524 256.694 78.1236 256.459 78.9332L250.163 78.4219C250.483 76.9304 251.111 75.6413 252.049 74.5547C252.986 73.4574 254.195 72.6158 255.676 72.0298C257.168 71.4332 258.894 71.1349 260.854 71.1349C262.217 71.1349 263.523 71.2947 264.769 71.6143C266.026 71.9339 267.139 72.4293 268.109 73.1005C269.089 73.7717 269.861 74.6346 270.426 75.6893C270.991 76.7333 271.273 77.9851 271.273 79.4446V96H264.817V92.5962H264.625C264.231 93.3633 263.704 94.0398 263.043 94.6257C262.383 95.201 261.589 95.6538 260.662 95.984C259.735 96.3036 258.665 96.4634 257.45 96.4634ZM259.4 91.7653C260.401 91.7653 261.285 91.5682 262.052 91.174C262.819 90.7692 263.421 90.2259 263.858 89.544C264.295 88.8622 264.513 88.0898 264.513 87.2269V84.6222C264.3 84.7607 264.007 84.8885 263.634 85.0057C263.272 85.1122 262.862 85.2134 262.404 85.3093C261.946 85.3945 261.488 85.4744 261.03 85.549C260.572 85.6129 260.156 85.6715 259.783 85.7248C258.984 85.842 258.286 86.0284 257.69 86.2841C257.093 86.5398 256.63 86.886 256.3 87.3228C255.969 87.7489 255.804 88.2816 255.804 88.9208C255.804 89.8477 256.14 90.5561 256.811 91.0462C257.493 91.5256 258.356 91.7653 259.4 91.7653ZM296.977 78.4538L290.745 78.8374C290.638 78.3047 290.409 77.8253 290.058 77.3991C289.706 76.9624 289.243 76.6161 288.667 76.3604C288.103 76.0941 287.426 75.9609 286.638 75.9609C285.583 75.9609 284.694 76.1847 283.969 76.6321C283.245 77.0689 282.882 77.6548 282.882 78.3899C282.882 78.9759 283.117 79.4712 283.586 79.8761C284.054 80.2809 284.859 80.6058 285.999 80.8509L290.441 81.7457C292.827 82.2358 294.607 83.0241 295.778 84.1108C296.95 85.1974 297.536 86.625 297.536 88.3935C297.536 90.0021 297.062 91.4137 296.114 92.6282C295.176 93.8427 293.887 94.7908 292.247 95.4727C290.617 96.1438 288.736 96.4794 286.606 96.4794C283.357 96.4794 280.768 95.8029 278.839 94.4499C276.922 93.0863 275.798 91.2326 275.468 88.8888L282.163 88.5373C282.366 89.5281 282.856 90.2844 283.634 90.8065C284.411 91.3178 285.407 91.5735 286.622 91.5735C287.815 91.5735 288.774 91.3445 289.498 90.8864C290.233 90.4176 290.606 89.8157 290.617 89.0806C290.606 88.4627 290.345 87.9567 289.834 87.5625C289.322 87.1577 288.534 86.8487 287.469 86.6357L283.218 85.7887C280.821 85.3093 279.037 84.4783 277.865 83.2958C276.703 82.1133 276.123 80.6058 276.123 78.7734C276.123 77.1967 276.549 75.8384 277.401 74.6985C278.264 73.5586 279.473 72.6797 281.029 72.0618C282.595 71.4439 284.427 71.1349 286.526 71.1349C289.626 71.1349 292.066 71.7901 293.845 73.1005C295.635 74.4109 296.679 76.1953 296.977 78.4538ZM313.009 96.4794C310.484 96.4794 308.311 95.968 306.489 94.9453C304.678 93.9119 303.282 92.4524 302.302 90.5668C301.322 88.6705 300.832 86.4279 300.832 83.8391C300.832 81.3143 301.322 79.0984 302.302 77.1914C303.282 75.2844 304.662 73.7983 306.441 72.733C308.231 71.6676 310.33 71.1349 312.737 71.1349C314.357 71.1349 315.864 71.396 317.26 71.918C318.666 72.4293 319.891 73.2017 320.935 74.2351C321.99 75.2685 322.81 76.5682 323.396 78.1342C323.982 79.6896 324.275 81.5114 324.275 83.5994V85.4691H303.549V81.2504H317.867C317.867 80.2702 317.654 79.402 317.228 78.6456C316.802 77.8892 316.21 77.2979 315.454 76.8718C314.708 76.435 313.84 76.2166 312.849 76.2166C311.816 76.2166 310.9 76.4563 310.101 76.9357C309.312 77.4045 308.694 78.0384 308.247 78.8374C307.799 79.6257 307.57 80.5046 307.56 81.4741V85.4851C307.56 86.6996 307.783 87.7489 308.231 88.6332C308.689 89.5174 309.334 90.1992 310.164 90.6786C310.995 91.158 311.981 91.3977 313.121 91.3977C313.877 91.3977 314.57 91.2912 315.198 91.0781C315.827 90.8651 316.365 90.5455 316.812 90.1193C317.26 89.6932 317.601 89.1712 317.835 88.5533L324.131 88.9688C323.812 90.4815 323.156 91.8026 322.166 92.9318C321.185 94.0504 319.918 94.924 318.362 95.5526C316.818 96.1705 315.033 96.4794 313.009 96.4794Z" fill="#EAEAEA"/>
</svg>
