<svg width="467" height="159" viewBox="0 0 467 159" fill="none" xmlns="http://www.w3.org/2000/svg">
<rect width="467" height="159" rx="60" fill="#7864F1"/>
<path d="M67.989 96H56.3874V63.2727H68.0849C71.3768 63.2727 74.2106 63.9279 76.5863 65.2383C78.962 66.538 80.7891 68.4077 82.0675 70.8473C83.3565 73.2869 84.0011 76.206 84.0011 79.6044C84.0011 83.0135 83.3565 85.9432 82.0675 88.3935C80.7891 90.8437 78.9514 92.7241 76.5543 94.0344C74.168 95.3448 71.3129 96 67.989 96ZM63.3068 90.0714H67.7013C69.7468 90.0714 71.4673 89.7092 72.8629 88.9847C74.2692 88.2496 75.3239 87.1151 76.027 85.581C76.7408 84.0362 77.0977 82.044 77.0977 79.6044C77.0977 77.1861 76.7408 75.2099 76.027 73.6758C75.3239 72.1417 74.2745 71.0124 72.8789 70.288C71.4833 69.5636 69.7628 69.2013 67.7173 69.2013H63.3068V90.0714ZM100.185 96.4794C97.6601 96.4794 95.4868 95.968 93.665 94.9453C91.854 93.9119 90.4584 92.4524 89.4782 90.5668C88.4981 88.6705 88.0081 86.4279 88.0081 83.8391C88.0081 81.3143 88.4981 79.0984 89.4782 77.1914C90.4584 75.2844 91.838 73.7983 93.6171 72.733C95.4069 71.6676 97.5056 71.1349 99.9133 71.1349C101.533 71.1349 103.04 71.396 104.436 71.918C105.842 72.4293 107.067 73.2017 108.111 74.2351C109.166 75.2685 109.986 76.5682 110.572 78.1342C111.158 79.6896 111.451 81.5114 111.451 83.5994V85.4691H90.7247V81.2504H105.043C105.043 80.2702 104.83 79.402 104.404 78.6456C103.978 77.8892 103.386 77.2979 102.63 76.8718C101.884 76.435 101.016 76.2166 100.025 76.2166C98.9917 76.2166 98.0756 76.4563 97.2765 76.9357C96.4882 77.4045 95.8703 78.0384 95.4229 78.8374C94.9754 79.6257 94.7464 80.5046 94.7357 81.4741V85.4851C94.7357 86.6996 94.9594 87.7489 95.4069 88.6332C95.865 89.5174 96.5095 90.1992 97.3405 90.6786C98.1714 91.158 99.1569 91.3977 100.297 91.3977C101.053 91.3977 101.746 91.2912 102.374 91.0781C103.003 90.8651 103.541 90.5455 103.988 90.1193C104.436 89.6932 104.777 89.1712 105.011 88.5533L111.307 88.9688C110.987 90.4815 110.332 91.8026 109.342 92.9318C108.361 94.0504 107.094 94.924 105.538 95.5526C103.994 96.1705 102.209 96.4794 100.185 96.4794ZM136.316 78.4538L130.084 78.8374C129.977 78.3047 129.748 77.8253 129.397 77.3991C129.045 76.9624 128.582 76.6161 128.006 76.3604C127.442 76.0941 126.765 75.9609 125.977 75.9609C124.922 75.9609 124.033 76.1847 123.308 76.6321C122.584 77.0689 122.222 77.6548 122.222 78.3899C122.222 78.9759 122.456 79.4712 122.925 79.8761C123.393 80.2809 124.198 80.6058 125.338 80.8509L129.78 81.7457C132.166 82.2358 133.946 83.0241 135.117 84.1108C136.289 85.1974 136.875 86.625 136.875 88.3935C136.875 90.0021 136.401 91.4137 135.453 92.6282C134.516 93.8427 133.226 94.7908 131.586 95.4727C129.956 96.1438 128.076 96.4794 125.945 96.4794C122.696 96.4794 120.107 95.8029 118.179 94.4499C116.261 93.0863 115.137 91.2326 114.807 88.8888L121.502 88.5373C121.705 89.5281 122.195 90.2844 122.973 90.8065C123.75 91.3178 124.746 91.5735 125.961 91.5735C127.154 91.5735 128.113 91.3445 128.837 90.8864C129.572 90.4176 129.945 89.8157 129.956 89.0806C129.945 88.4627 129.684 87.9567 129.173 87.5625C128.661 87.1577 127.873 86.8487 126.808 86.6357L122.557 85.7887C120.16 85.3093 118.376 84.4783 117.204 83.2958C116.043 82.1133 115.462 80.6058 115.462 78.7734C115.462 77.1967 115.888 75.8384 116.74 74.6985C117.603 73.5586 118.812 72.6797 120.368 72.0618C121.934 71.4439 123.766 71.1349 125.865 71.1349C128.965 71.1349 131.405 71.7901 133.184 73.1005C134.974 74.4109 136.018 76.1953 136.316 78.4538ZM141.162 96V71.4545H147.969V96H141.162ZM144.582 68.2905C143.57 68.2905 142.701 67.9549 141.977 67.2837C141.263 66.6019 140.906 65.7869 140.906 64.8388C140.906 63.9013 141.263 63.0969 141.977 62.4258C142.701 61.744 143.57 61.4031 144.582 61.4031C145.594 61.4031 146.457 61.744 147.17 62.4258C147.895 63.0969 148.257 63.9013 148.257 64.8388C148.257 65.7869 147.895 66.6019 147.17 67.2837C146.457 67.9549 145.594 68.2905 144.582 68.2905ZM164.481 105.716C162.276 105.716 160.385 105.412 158.808 104.805C157.242 104.208 155.995 103.393 155.069 102.36C154.142 101.327 153.54 100.165 153.263 98.8764L159.559 98.0295C159.751 98.5195 160.054 98.9776 160.47 99.4038C160.885 99.8299 161.434 100.171 162.116 100.426C162.808 100.693 163.65 100.826 164.641 100.826C166.122 100.826 167.341 100.464 168.3 99.7393C169.27 99.0256 169.754 97.8271 169.754 96.1438V91.6534H169.467C169.168 92.3352 168.721 92.9798 168.124 93.587C167.528 94.1942 166.761 94.6896 165.823 95.0732C164.886 95.4567 163.767 95.6484 162.467 95.6484C160.624 95.6484 158.946 95.2223 157.434 94.37C155.932 93.5071 154.733 92.1914 153.838 90.4229C152.954 88.6438 152.512 86.396 152.512 83.6793C152.512 80.8988 152.965 78.5763 153.87 76.712C154.776 74.8477 155.979 73.4521 157.482 72.5252C158.994 71.5984 160.651 71.1349 162.451 71.1349C163.826 71.1349 164.976 71.3693 165.903 71.8381C166.83 72.2962 167.576 72.8714 168.14 73.5639C168.716 74.2457 169.158 74.9169 169.467 75.5774H169.722V71.4545H176.482V96.2397C176.482 98.3278 175.971 100.075 174.948 101.481C173.925 102.887 172.508 103.942 170.697 104.645C168.897 105.359 166.825 105.716 164.481 105.716ZM164.625 90.5348C165.722 90.5348 166.649 90.2631 167.405 89.7198C168.172 89.1658 168.758 88.3775 169.163 87.3548C169.579 86.3214 169.786 85.0856 169.786 83.6474C169.786 82.2092 169.584 80.9627 169.179 79.908C168.774 78.8427 168.188 78.017 167.421 77.4311C166.654 76.8452 165.722 76.5522 164.625 76.5522C163.506 76.5522 162.563 76.8558 161.796 77.4631C161.029 78.0597 160.449 78.8906 160.054 79.956C159.66 81.0213 159.463 82.2518 159.463 83.6474C159.463 85.0643 159.66 86.2894 160.054 87.3228C160.459 88.3455 161.04 89.1392 161.796 89.7038C162.563 90.2578 163.506 90.5348 164.625 90.5348ZM188.707 81.8097V96H181.899V71.4545H188.387V75.7852H188.675C189.218 74.3576 190.129 73.2283 191.407 72.3974C192.686 71.5558 194.236 71.1349 196.058 71.1349C197.762 71.1349 199.248 71.5078 200.516 72.2536C201.784 72.9993 202.769 74.0646 203.472 75.4496C204.176 76.8239 204.527 78.4645 204.527 80.3714V96H197.72V81.5859C197.73 80.0838 197.347 78.9119 196.569 78.0703C195.791 77.218 194.721 76.7919 193.357 76.7919C192.441 76.7919 191.631 76.989 190.928 77.3832C190.236 77.7773 189.692 78.3526 189.298 79.109C188.915 79.8548 188.717 80.755 188.707 81.8097ZM220.435 96V63.2727H233.347C235.829 63.2727 237.944 63.7468 239.691 64.695C241.438 65.6325 242.77 66.9375 243.686 68.6101C244.613 70.272 245.077 72.1896 245.077 74.3629C245.077 76.5362 244.608 78.4538 243.67 80.1158C242.733 81.7777 241.375 83.0721 239.595 83.9989C237.827 84.9258 235.686 85.3892 233.171 85.3892H224.942V79.8441H232.053C233.384 79.8441 234.482 79.6151 235.345 79.157C236.218 78.6882 236.868 78.0437 237.294 77.2234C237.731 76.3924 237.949 75.4389 237.949 74.3629C237.949 73.2763 237.731 72.3281 237.294 71.5185C236.868 70.6982 236.218 70.0643 235.345 69.6168C234.471 69.1587 233.363 68.9297 232.021 68.9297H227.355V96H220.435ZM255.783 96.4634C254.217 96.4634 252.822 96.1918 251.597 95.6484C250.371 95.0945 249.402 94.2795 248.688 93.2035C247.985 92.1168 247.633 90.7638 247.633 89.1445C247.633 87.7809 247.884 86.6357 248.384 85.7088C248.885 84.782 249.567 84.0362 250.43 83.4716C251.293 82.907 252.273 82.4808 253.37 82.1932C254.478 81.9055 255.639 81.7031 256.854 81.5859C258.282 81.4368 259.432 81.2983 260.306 81.1705C261.179 81.032 261.813 80.8295 262.207 80.5632C262.601 80.2969 262.799 79.9027 262.799 79.3807V79.2848C262.799 78.2727 262.479 77.4897 261.84 76.9357C261.211 76.3817 260.316 76.1048 259.155 76.1048C257.93 76.1048 256.955 76.3764 256.231 76.9197C255.506 77.4524 255.027 78.1236 254.793 78.9332L248.496 78.4219C248.816 76.9304 249.445 75.6413 250.382 74.5547C251.32 73.4574 252.529 72.6158 254.009 72.0298C255.501 71.4332 257.227 71.1349 259.187 71.1349C260.551 71.1349 261.856 71.2947 263.102 71.6143C264.359 71.9339 265.473 72.4293 266.442 73.1005C267.422 73.7717 268.195 74.6346 268.759 75.6893C269.324 76.7333 269.606 77.9851 269.606 79.4446V96H263.15V92.5962H262.958C262.564 93.3633 262.037 94.0398 261.376 94.6257C260.716 95.201 259.922 95.6538 258.995 95.984C258.068 96.3036 256.998 96.4634 255.783 96.4634ZM257.733 91.7653C258.734 91.7653 259.619 91.5682 260.386 91.174C261.153 90.7692 261.755 90.2259 262.191 89.544C262.628 88.8622 262.847 88.0898 262.847 87.2269V84.6222C262.633 84.7607 262.34 84.8885 261.968 85.0057C261.605 85.1122 261.195 85.2134 260.737 85.3093C260.279 85.3945 259.821 85.4744 259.363 85.549C258.905 85.6129 258.489 85.6715 258.116 85.7248C257.317 85.842 256.62 86.0284 256.023 86.2841C255.426 86.5398 254.963 86.886 254.633 87.3228C254.302 87.7489 254.137 88.2816 254.137 88.9208C254.137 89.8477 254.473 90.5561 255.144 91.0462C255.826 91.5256 256.689 91.7653 257.733 91.7653ZM287.943 71.4545V76.5682H273.162V71.4545H287.943ZM276.517 65.5739H283.325V88.4574C283.325 89.0859 283.421 89.576 283.613 89.9276C283.804 90.2685 284.071 90.5082 284.412 90.6467C284.763 90.7852 285.168 90.8544 285.626 90.8544C285.946 90.8544 286.265 90.8278 286.585 90.7745C286.905 90.7106 287.15 90.6626 287.32 90.6307L288.391 95.6964C288.05 95.8029 287.57 95.9254 286.953 96.0639C286.335 96.2131 285.584 96.3036 284.699 96.3356C283.059 96.3995 281.62 96.1811 280.385 95.6804C279.16 95.1797 278.206 94.402 277.524 93.3473C276.842 92.2926 276.507 90.9609 276.517 89.3523V65.5739ZM305.434 71.4545V76.5682H290.652V71.4545H305.434ZM294.008 65.5739H300.815V88.4574C300.815 89.0859 300.911 89.576 301.103 89.9276C301.295 90.2685 301.561 90.5082 301.902 90.6467C302.253 90.7852 302.658 90.8544 303.116 90.8544C303.436 90.8544 303.756 90.8278 304.075 90.7745C304.395 90.7106 304.64 90.6626 304.81 90.6307L305.881 95.6964C305.54 95.8029 305.061 95.9254 304.443 96.0639C303.825 96.2131 303.074 96.3036 302.19 96.3356C300.549 96.3995 299.111 96.1811 297.875 95.6804C296.65 95.1797 295.696 94.402 295.014 93.3473C294.333 92.2926 293.997 90.9609 294.008 89.3523V65.5739ZM320.79 96.4794C318.266 96.4794 316.092 95.968 314.271 94.9453C312.459 93.9119 311.064 92.4524 310.084 90.5668C309.104 88.6705 308.614 86.4279 308.614 83.8391C308.614 81.3143 309.104 79.0984 310.084 77.1914C311.064 75.2844 312.443 73.7983 314.223 72.733C316.012 71.6676 318.111 71.1349 320.519 71.1349C322.138 71.1349 323.646 71.396 325.041 71.918C326.447 72.4293 327.672 73.2017 328.717 74.2351C329.771 75.2685 330.592 76.5682 331.177 78.1342C331.763 79.6896 332.056 81.5114 332.056 83.5994V85.4691H311.33V81.2504H325.648C325.648 80.2702 325.435 79.402 325.009 78.6456C324.583 77.8892 323.992 77.2979 323.235 76.8718C322.49 76.435 321.621 76.2166 320.631 76.2166C319.597 76.2166 318.681 76.4563 317.882 76.9357C317.094 77.4045 316.476 78.0384 316.028 78.8374C315.581 79.6257 315.352 80.5046 315.341 81.4741V85.4851C315.341 86.6996 315.565 87.7489 316.012 88.6332C316.47 89.5174 317.115 90.1992 317.946 90.6786C318.777 91.158 319.762 91.3977 320.902 91.3977C321.659 91.3977 322.351 91.2912 322.98 91.0781C323.608 90.8651 324.146 90.5455 324.594 90.1193C325.041 89.6932 325.382 89.1712 325.616 88.5533L331.913 88.9688C331.593 90.4815 330.938 91.8026 329.947 92.9318C328.967 94.0504 327.699 94.924 326.144 95.5526C324.599 96.1705 322.815 96.4794 320.79 96.4794ZM336.499 96V71.4545H343.099V75.7372H343.354C343.802 74.2138 344.553 73.0632 345.608 72.2855C346.662 71.4972 347.877 71.103 349.251 71.103C349.592 71.103 349.959 71.1243 350.354 71.1669C350.748 71.2095 351.094 71.2681 351.392 71.3427V77.3832C351.073 77.2873 350.631 77.2021 350.066 77.1275C349.501 77.0529 348.985 77.0156 348.516 77.0156C347.514 77.0156 346.62 77.234 345.831 77.6708C345.054 78.0969 344.436 78.6935 343.978 79.4606C343.53 80.2276 343.306 81.1119 343.306 82.1133V96H336.499ZM361.719 81.8097V96H354.912V71.4545H361.4V75.7852H361.688C362.231 74.3576 363.142 73.2283 364.42 72.3974C365.699 71.5558 367.249 71.1349 369.07 71.1349C370.775 71.1349 372.261 71.5078 373.529 72.2536C374.797 72.9993 375.782 74.0646 376.485 75.4496C377.188 76.8239 377.54 78.4645 377.54 80.3714V96H370.732V81.5859C370.743 80.0838 370.359 78.9119 369.582 78.0703C368.804 77.218 367.733 76.7919 366.37 76.7919C365.453 76.7919 364.644 76.989 363.941 77.3832C363.248 77.7773 362.705 78.3526 362.311 79.109C361.927 79.8548 361.73 80.755 361.719 81.8097ZM403.328 78.4538L397.095 78.8374C396.989 78.3047 396.76 77.8253 396.408 77.3991C396.057 76.9624 395.593 76.6161 395.018 76.3604C394.453 76.0941 393.777 75.9609 392.989 75.9609C391.934 75.9609 391.044 76.1847 390.32 76.6321C389.595 77.0689 389.233 77.6548 389.233 78.3899C389.233 78.9759 389.468 79.4712 389.936 79.8761C390.405 80.2809 391.209 80.6058 392.349 80.8509L396.792 81.7457C399.178 82.2358 400.957 83.0241 402.129 84.1108C403.301 85.1974 403.887 86.625 403.887 88.3935C403.887 90.0021 403.413 91.4137 402.465 92.6282C401.527 93.8427 400.238 94.7908 398.598 95.4727C396.968 96.1438 395.087 96.4794 392.957 96.4794C389.707 96.4794 387.119 95.8029 385.19 94.4499C383.273 93.0863 382.149 91.2326 381.818 88.8888L388.514 88.5373C388.717 89.5281 389.207 90.2844 389.984 90.8065C390.762 91.3178 391.758 91.5735 392.973 91.5735C394.166 91.5735 395.125 91.3445 395.849 90.8864C396.584 90.4176 396.957 89.8157 396.968 89.0806C396.957 88.4627 396.696 87.9567 396.185 87.5625C395.673 87.1577 394.885 86.8487 393.82 86.6357L389.569 85.7887C387.172 85.3093 385.387 84.4783 384.215 83.2958C383.054 82.1133 382.474 80.6058 382.474 78.7734C382.474 77.1967 382.9 75.8384 383.752 74.6985C384.615 73.5586 385.824 72.6797 387.38 72.0618C388.946 71.4439 390.778 71.1349 392.877 71.1349C395.977 71.1349 398.416 71.7901 400.196 73.1005C401.985 74.4109 403.029 76.1953 403.328 78.4538Z" fill="#EAEAEA"/>
</svg>
