<svg width="384" height="159" viewBox="0 0 384 159" fill="none" xmlns="http://www.w3.org/2000/svg">
<rect width="384" height="159" rx="60" fill="#409DA3"/>
<path d="M140.655 63.2727H149.188L158.201 85.2614H158.585L167.597 63.2727H176.131V96H169.419V74.6985H169.148L160.678 95.8402H156.108L147.638 74.6186H147.367V96H140.655V63.2727ZM188.703 96.4634C187.137 96.4634 185.742 96.1918 184.516 95.6484C183.291 95.0945 182.322 94.2795 181.608 93.2035C180.905 92.1168 180.553 90.7638 180.553 89.1445C180.553 87.7809 180.804 86.6357 181.304 85.7088C181.805 84.782 182.487 84.0362 183.35 83.4716C184.213 82.907 185.193 82.4808 186.29 82.1932C187.398 81.9055 188.559 81.7031 189.774 81.5859C191.201 81.4368 192.352 81.2983 193.226 81.1705C194.099 81.032 194.733 80.8295 195.127 80.5632C195.521 80.2969 195.718 79.9027 195.718 79.3807V79.2848C195.718 78.2727 195.399 77.4897 194.76 76.9357C194.131 76.3817 193.236 76.1048 192.075 76.1048C190.85 76.1048 189.875 76.3764 189.151 76.9197C188.426 77.4524 187.947 78.1236 187.712 78.9332L181.416 78.4219C181.736 76.9304 182.364 75.6413 183.302 74.5547C184.239 73.4574 185.449 72.6158 186.929 72.0298C188.421 71.4332 190.147 71.1349 192.107 71.1349C193.471 71.1349 194.776 71.2947 196.022 71.6143C197.279 71.9339 198.392 72.4293 199.362 73.1005C200.342 73.7717 201.114 74.6346 201.679 75.6893C202.244 76.7333 202.526 77.9851 202.526 79.4446V96H196.07V92.5962H195.878C195.484 93.3633 194.957 94.0398 194.296 94.6257C193.636 95.201 192.842 95.6538 191.915 95.984C190.988 96.3036 189.918 96.4634 188.703 96.4634ZM190.653 91.7653C191.654 91.7653 192.538 91.5682 193.305 91.174C194.073 90.7692 194.674 90.2259 195.111 89.544C195.548 88.8622 195.766 88.0898 195.766 87.2269V84.6222C195.553 84.7607 195.26 84.8885 194.888 85.0057C194.525 85.1122 194.115 85.2134 193.657 85.3093C193.199 85.3945 192.741 85.4744 192.283 85.549C191.825 85.6129 191.409 85.6715 191.036 85.7248C190.237 85.842 189.54 86.0284 188.943 86.2841C188.346 86.5398 187.883 86.886 187.553 87.3228C187.222 87.7489 187.057 88.2816 187.057 88.9208C187.057 89.8477 187.393 90.5561 188.064 91.0462C188.746 91.5256 189.609 91.7653 190.653 91.7653ZM220.863 71.4545V76.5682H206.082V71.4545H220.863ZM209.437 65.5739H216.245V88.4574C216.245 89.0859 216.341 89.576 216.533 89.9276C216.724 90.2685 216.991 90.5082 217.332 90.6467C217.683 90.7852 218.088 90.8544 218.546 90.8544C218.866 90.8544 219.185 90.8278 219.505 90.7745C219.824 90.7106 220.07 90.6626 220.24 90.6307L221.311 95.6964C220.97 95.8029 220.49 95.9254 219.872 96.0639C219.255 96.2131 218.503 96.3036 217.619 96.3356C215.979 96.3995 214.54 96.1811 213.305 95.6804C212.079 95.1797 211.126 94.402 210.444 93.3473C209.762 92.2926 209.427 90.9609 209.437 89.3523V65.5739ZM232.633 81.8097V96H225.825V63.2727H232.441V75.7852H232.728C233.282 74.3363 234.177 73.2017 235.413 72.3814C236.649 71.5504 238.199 71.1349 240.063 71.1349C241.768 71.1349 243.254 71.5078 244.522 72.2536C245.8 72.9886 246.791 74.0486 247.494 75.4336C248.208 76.8079 248.559 78.4538 248.549 80.3714V96H241.741V81.5859C241.752 80.0732 241.368 78.896 240.591 78.0543C239.824 77.2127 238.748 76.7919 237.363 76.7919C236.436 76.7919 235.616 76.989 234.902 77.3832C234.199 77.7773 233.645 78.3526 233.24 79.109C232.846 79.8548 232.643 80.755 232.633 81.8097Z" fill="#EAEAEA"/>
</svg>
