<svg width="437" height="159" viewBox="0 0 437 159" fill="none" xmlns="http://www.w3.org/2000/svg">
<rect width="437" height="159" rx="60" fill="#97418E"/>
<path d="M123.529 63.2727V96H117.552L103.314 75.4016H103.074V96H96.1548V63.2727H102.227L116.354 83.8551H116.641V63.2727H123.529ZM140.304 96.4794C137.779 96.4794 135.606 95.968 133.784 94.9453C131.973 93.9119 130.577 92.4524 129.597 90.5668C128.617 88.6705 128.127 86.4279 128.127 83.8391C128.127 81.3143 128.617 79.0984 129.597 77.1914C130.577 75.2844 131.957 73.7983 133.736 72.733C135.526 71.6676 137.625 71.1349 140.032 71.1349C141.652 71.1349 143.159 71.396 144.555 71.918C145.961 72.4293 147.186 73.2017 148.23 74.2351C149.285 75.2685 150.105 76.5682 150.691 78.1342C151.277 79.6896 151.57 81.5114 151.57 83.5994V85.4691H130.844V81.2504H145.162C145.162 80.2702 144.949 79.402 144.523 78.6456C144.096 77.8892 143.505 77.2979 142.749 76.8718C142.003 76.435 141.135 76.2166 140.144 76.2166C139.111 76.2166 138.194 76.4563 137.395 76.9357C136.607 77.4045 135.989 78.0384 135.542 78.8374C135.094 79.6257 134.865 80.5046 134.855 81.4741V85.4851C134.855 86.6996 135.078 87.7489 135.526 88.6332C135.984 89.5174 136.628 90.1992 137.459 90.6786C138.29 91.158 139.276 91.3977 140.416 91.3977C141.172 91.3977 141.865 91.2912 142.493 91.0781C143.122 90.8651 143.66 90.5455 144.107 90.1193C144.555 89.6932 144.895 89.1712 145.13 88.5533L151.426 88.9688C151.106 90.4815 150.451 91.8026 149.46 92.9318C148.48 94.0504 147.213 94.924 145.657 95.5526C144.112 96.1705 142.328 96.4794 140.304 96.4794ZM169.068 71.4545V76.5682H154.286V71.4545H169.068ZM157.642 65.5739H164.45V88.4574C164.45 89.0859 164.546 89.576 164.737 89.9276C164.929 90.2685 165.196 90.5082 165.536 90.6467C165.888 90.7852 166.293 90.8544 166.751 90.8544C167.071 90.8544 167.39 90.8278 167.71 90.7745C168.029 90.7106 168.274 90.6626 168.445 90.6307L169.516 95.6964C169.175 95.8029 168.695 95.9254 168.077 96.0639C167.459 96.2131 166.708 96.3036 165.824 96.3356C164.183 96.3995 162.745 96.1811 161.509 95.6804C160.284 95.1797 159.331 94.402 158.649 93.3473C157.967 92.2926 157.632 90.9609 157.642 89.3523V65.5739ZM178.345 96L171.665 71.4545H178.552L182.356 87.946H182.579L186.542 71.4545H193.302L197.329 87.8501H197.537L201.276 71.4545H208.147L201.484 96H194.277L190.058 80.5632H189.754L185.536 96H178.345ZM222.254 96.4794C219.772 96.4794 217.625 95.9521 215.814 94.8974C214.013 93.832 212.623 92.3512 211.643 90.4549C210.663 88.5479 210.173 86.3374 210.173 83.8232C210.173 81.2876 210.663 79.0717 211.643 77.1754C212.623 75.2685 214.013 73.7876 215.814 72.733C217.625 71.6676 219.772 71.1349 222.254 71.1349C224.736 71.1349 226.877 71.6676 228.678 72.733C230.489 73.7876 231.885 75.2685 232.865 77.1754C233.845 79.0717 234.335 81.2876 234.335 83.8232C234.335 86.3374 233.845 88.5479 232.865 90.4549C231.885 92.3512 230.489 93.832 228.678 94.8974C226.877 95.9521 224.736 96.4794 222.254 96.4794ZM222.286 91.206C223.415 91.206 224.358 90.8864 225.114 90.2472C225.871 89.5973 226.441 88.7131 226.824 87.5945C227.218 86.4759 227.415 85.2028 227.415 83.7752C227.415 82.3477 227.218 81.0746 226.824 79.956C226.441 78.8374 225.871 77.9531 225.114 77.3033C224.358 76.6534 223.415 76.3285 222.286 76.3285C221.146 76.3285 220.187 76.6534 219.409 77.3033C218.642 77.9531 218.062 78.8374 217.668 79.956C217.284 81.0746 217.092 82.3477 217.092 83.7752C217.092 85.2028 217.284 86.4759 217.668 87.5945C218.062 88.7131 218.642 89.5973 219.409 90.2472C220.187 90.8864 221.146 91.206 222.286 91.206ZM238.761 96V71.4545H245.361V75.7372H245.617C246.064 74.2138 246.815 73.0632 247.87 72.2855C248.925 71.4972 250.139 71.103 251.513 71.103C251.854 71.103 252.222 71.1243 252.616 71.1669C253.01 71.2095 253.357 71.2681 253.655 71.3427V77.3832C253.335 77.2873 252.893 77.2021 252.328 77.1275C251.764 77.0529 251.247 77.0156 250.778 77.0156C249.777 77.0156 248.882 77.234 248.094 77.6708C247.316 78.0969 246.698 78.6935 246.24 79.4606C245.793 80.2276 245.569 81.1119 245.569 82.1133V96H238.761ZM263.343 88.9368L263.359 80.771H264.349L272.212 71.4545H280.026L269.463 83.7912H267.849L263.343 88.9368ZM257.174 96V63.2727H263.982V96H257.174ZM272.515 96L265.292 85.3093L269.831 80.4993L280.489 96H272.515ZM283.366 96V71.4545H290.173V96H283.366ZM286.786 68.2905C285.774 68.2905 284.905 67.9549 284.181 67.2837C283.467 66.6019 283.11 65.7869 283.11 64.8388C283.11 63.9013 283.467 63.0969 284.181 62.4258C284.905 61.744 285.774 61.4031 286.786 61.4031C287.798 61.4031 288.661 61.744 289.374 62.4258C290.099 63.0969 290.461 63.9013 290.461 64.8388C290.461 65.7869 290.099 66.6019 289.374 67.2837C288.661 67.9549 287.798 68.2905 286.786 68.2905ZM302.434 81.8097V96H295.627V71.4545H302.115V75.7852H302.402C302.945 74.3576 303.856 73.2283 305.135 72.3974C306.413 71.5558 307.963 71.1349 309.785 71.1349C311.49 71.1349 312.976 71.5078 314.243 72.2536C315.511 72.9993 316.497 74.0646 317.2 75.4496C317.903 76.8239 318.254 78.4645 318.254 80.3714V96H311.447V81.5859C311.458 80.0838 311.074 78.9119 310.296 78.0703C309.519 77.218 308.448 76.7919 307.084 76.7919C306.168 76.7919 305.358 76.989 304.655 77.3832C303.963 77.7773 303.42 78.3526 303.025 79.109C302.642 79.8548 302.445 80.755 302.434 81.8097ZM334.678 105.716C332.473 105.716 330.582 105.412 329.005 104.805C327.439 104.208 326.193 103.393 325.266 102.36C324.339 101.327 323.737 100.165 323.46 98.8764L329.756 98.0295C329.948 98.5195 330.252 98.9776 330.667 99.4038C331.082 99.8299 331.631 100.171 332.313 100.426C333.005 100.693 333.847 100.826 334.838 100.826C336.319 100.826 337.538 100.464 338.497 99.7393C339.467 99.0256 339.951 97.8271 339.951 96.1438V91.6534H339.664C339.365 92.3352 338.918 92.9798 338.321 93.587C337.725 94.1942 336.958 94.6896 336.02 95.0732C335.083 95.4567 333.964 95.6484 332.665 95.6484C330.821 95.6484 329.144 95.2223 327.631 94.37C326.129 93.5071 324.93 92.1914 324.035 90.4229C323.151 88.6438 322.709 86.396 322.709 83.6793C322.709 80.8988 323.162 78.5763 324.067 76.712C324.973 74.8477 326.177 73.4521 327.679 72.5252C329.191 71.5984 330.848 71.1349 332.649 71.1349C334.023 71.1349 335.173 71.3693 336.1 71.8381C337.027 72.2962 337.773 72.8714 338.337 73.5639C338.913 74.2457 339.355 74.9169 339.664 75.5774H339.919V71.4545H346.679V96.2397C346.679 98.3278 346.168 100.075 345.145 101.481C344.122 102.887 342.705 103.942 340.894 104.645C339.094 105.359 337.022 105.716 334.678 105.716ZM334.822 90.5348C335.919 90.5348 336.846 90.2631 337.602 89.7198C338.369 89.1658 338.955 88.3775 339.36 87.3548C339.776 86.3214 339.983 85.0856 339.983 83.6474C339.983 82.2092 339.781 80.9627 339.376 79.908C338.971 78.8427 338.385 78.017 337.618 77.4311C336.851 76.8452 335.919 76.5522 334.822 76.5522C333.703 76.5522 332.76 76.8558 331.993 77.4631C331.226 78.0597 330.646 78.8906 330.252 79.956C329.857 81.0213 329.66 82.2518 329.66 83.6474C329.66 85.0643 329.857 86.2894 330.252 87.3228C330.656 88.3455 331.237 89.1392 331.993 89.7038C332.76 90.2578 333.703 90.5348 334.822 90.5348Z" fill="#EAEAEA"/>
</svg>
