<svg width="437" height="159" viewBox="0 0 437 159" fill="none" xmlns="http://www.w3.org/2000/svg">
<rect width="437" height="159" rx="60" fill="#D4544A"/>
<path d="M204.496 79.6364C204.496 83.2053 203.82 86.2415 202.467 88.745C201.124 91.2486 199.292 93.1609 196.969 94.4819C194.658 95.7923 192.058 96.4474 189.171 96.4474C186.263 96.4474 183.653 95.7869 181.341 94.4659C179.029 93.1449 177.202 91.2326 175.86 88.729C174.517 86.2255 173.846 83.1946 173.846 79.6364C173.846 76.0675 174.517 73.0312 175.86 70.5277C177.202 68.0241 179.029 66.1172 181.341 64.8068C183.653 63.4858 186.263 62.8253 189.171 62.8253C192.058 62.8253 194.658 63.4858 196.969 64.8068C199.292 66.1172 201.124 68.0241 202.467 70.5277C203.82 73.0312 204.496 76.0675 204.496 79.6364ZM197.481 79.6364C197.481 77.3246 197.135 75.375 196.442 73.7876C195.76 72.2003 194.796 70.9964 193.55 70.1761C192.303 69.3558 190.844 68.9457 189.171 68.9457C187.499 68.9457 186.039 69.3558 184.793 70.1761C183.546 70.9964 182.577 72.2003 181.884 73.7876C181.202 75.375 180.861 77.3246 180.861 79.6364C180.861 81.9482 181.202 83.8977 181.884 85.4851C182.577 87.0724 183.546 88.2763 184.793 89.0966C186.039 89.9169 187.499 90.3271 189.171 90.3271C190.844 90.3271 192.303 89.9169 193.55 89.0966C194.796 88.2763 195.76 87.0724 196.442 85.4851C197.135 83.8977 197.481 81.9482 197.481 79.6364ZM239.696 79.6364C239.696 83.2053 239.02 86.2415 237.667 88.745C236.324 91.2486 234.492 93.1609 232.17 94.4819C229.858 95.7923 227.258 96.4474 224.371 96.4474C221.463 96.4474 218.853 95.7869 216.541 94.4659C214.229 93.1449 212.402 91.2326 211.06 88.729C209.718 86.2255 209.046 83.1946 209.046 79.6364C209.046 76.0675 209.718 73.0312 211.06 70.5277C212.402 68.0241 214.229 66.1172 216.541 64.8068C218.853 63.4858 221.463 62.8253 224.371 62.8253C227.258 62.8253 229.858 63.4858 232.17 64.8068C234.492 66.1172 236.324 68.0241 237.667 70.5277C239.02 73.0312 239.696 76.0675 239.696 79.6364ZM232.681 79.6364C232.681 77.3246 232.335 75.375 231.642 73.7876C230.96 72.2003 229.996 70.9964 228.75 70.1761C227.503 69.3558 226.044 68.9457 224.371 68.9457C222.699 68.9457 221.239 69.3558 219.993 70.1761C218.746 70.9964 217.777 72.2003 217.084 73.7876C216.403 75.375 216.062 77.3246 216.062 79.6364C216.062 81.9482 216.403 83.8977 217.084 85.4851C217.777 87.0724 218.746 88.2763 219.993 89.0966C221.239 89.9169 222.699 90.3271 224.371 90.3271C226.044 90.3271 227.503 89.9169 228.75 89.0966C229.996 88.2763 230.96 87.0724 231.642 85.4851C232.335 83.8977 232.681 81.9482 232.681 79.6364ZM244.822 96V63.2727H257.734C260.216 63.2727 262.331 63.7468 264.078 64.695C265.825 65.6325 267.157 66.9375 268.073 68.6101C269 70.272 269.463 72.1896 269.463 74.3629C269.463 76.5362 268.994 78.4538 268.057 80.1158C267.119 81.7777 265.761 83.0721 263.982 83.9989C262.214 84.9258 260.072 85.3892 257.558 85.3892H249.328V79.8441H256.439C257.771 79.8441 258.868 79.6151 259.731 79.157C260.605 78.6882 261.255 78.0437 261.681 77.2234C262.118 76.3924 262.336 75.4389 262.336 74.3629C262.336 73.2763 262.118 72.3281 261.681 71.5185C261.255 70.6982 260.605 70.0643 259.731 69.6168C258.858 69.1587 257.75 68.9297 256.407 68.9297H251.741V96H244.822Z" fill="#EAEAEA"/>
</svg>
