<svg width="490" height="159" viewBox="0 0 490 159" fill="none" xmlns="http://www.w3.org/2000/svg">
<rect width="490" height="159" rx="60" fill="#7695AB"/>
<path d="M79.2643 79.6364C79.2643 83.2053 78.5878 86.2415 77.2348 88.745C75.8924 91.2486 74.0601 93.1609 71.7376 94.4819C69.4258 95.7923 66.8264 96.4474 63.9393 96.4474C61.0309 96.4474 58.4209 95.7869 56.1091 94.4659C53.7973 93.1449 51.9702 91.2326 50.6279 88.729C49.2856 86.2255 48.6144 83.1946 48.6144 79.6364C48.6144 76.0675 49.2856 73.0312 50.6279 70.5277C51.9702 68.0241 53.7973 66.1172 56.1091 64.8068C58.4209 63.4858 61.0309 62.8253 63.9393 62.8253C66.8264 62.8253 69.4258 63.4858 71.7376 64.8068C74.0601 66.1172 75.8924 68.0241 77.2348 70.5277C78.5878 73.0312 79.2643 76.0675 79.2643 79.6364ZM72.249 79.6364C72.249 77.3246 71.9027 75.375 71.2103 73.7876C70.5285 72.2003 69.5643 70.9964 68.3179 70.1761C67.0714 69.3558 65.6119 68.9457 63.9393 68.9457C62.2667 68.9457 60.8072 69.3558 59.5608 70.1761C58.3143 70.9964 57.3449 72.2003 56.6524 73.7876C55.9706 75.375 55.6297 77.3246 55.6297 79.6364C55.6297 81.9482 55.9706 83.8977 56.6524 85.4851C57.3449 87.0724 58.3143 88.2763 59.5608 89.0966C60.8072 89.9169 62.2667 90.3271 63.9393 90.3271C65.6119 90.3271 67.0714 89.9169 68.3179 89.0966C69.5643 88.2763 70.5285 87.0724 71.2103 85.4851C71.9027 83.8977 72.249 81.9482 72.249 79.6364ZM84.262 105.205V71.4545H90.9737V75.5774H91.2773C91.5756 74.9169 92.0071 74.2457 92.5717 73.5639C93.147 72.8714 93.8927 72.2962 94.8089 71.8381C95.7358 71.3693 96.8863 71.1349 98.2606 71.1349C100.05 71.1349 101.702 71.6037 103.214 72.5412C104.727 73.468 105.936 74.869 106.842 76.744C107.747 78.6083 108.2 80.9467 108.2 83.7592C108.2 86.4972 107.758 88.8089 106.874 90.6946C106 92.5696 104.807 93.9918 103.294 94.9613C101.792 95.9201 100.109 96.3995 98.2446 96.3995C96.9236 96.3995 95.7997 96.1811 94.8728 95.7443C93.9566 95.3075 93.2056 94.7589 92.6196 94.0984C92.0337 93.4272 91.5862 92.7507 91.2773 92.0689H91.0696V105.205H84.262ZM90.9257 83.7273C90.9257 85.1868 91.1282 86.4599 91.533 87.5465C91.9378 88.6332 92.5237 89.4801 93.2908 90.0874C94.0578 90.6839 94.99 90.9822 96.0873 90.9822C97.1953 90.9822 98.1328 90.6786 98.8998 90.0714C99.6669 89.4535 100.247 88.6012 100.642 87.5146C101.046 86.4173 101.249 85.1548 101.249 83.7273C101.249 82.3104 101.052 81.0639 100.658 79.9879C100.263 78.9119 99.6828 78.0703 98.9158 77.4631C98.1487 76.8558 97.2059 76.5522 96.0873 76.5522C94.9794 76.5522 94.0419 76.8452 93.2748 77.4311C92.5184 78.017 91.9378 78.848 91.533 79.924C91.1282 81 90.9257 82.2678 90.9257 83.7273ZM123.925 96.4794C121.4 96.4794 119.227 95.968 117.405 94.9453C115.594 93.9119 114.198 92.4524 113.218 90.5668C112.238 88.6705 111.748 86.4279 111.748 83.8391C111.748 81.3143 112.238 79.0984 113.218 77.1914C114.198 75.2844 115.578 73.7983 117.357 72.733C119.147 71.6676 121.245 71.1349 123.653 71.1349C125.272 71.1349 126.78 71.396 128.175 71.918C129.582 72.4293 130.807 73.2017 131.851 74.2351C132.905 75.2685 133.726 76.5682 134.312 78.1342C134.898 79.6896 135.191 81.5114 135.191 83.5994V85.4691H114.464V81.2504H128.783C128.783 80.2702 128.57 79.402 128.143 78.6456C127.717 77.8892 127.126 77.2979 126.37 76.8718C125.624 76.435 124.756 76.2166 123.765 76.2166C122.731 76.2166 121.815 76.4563 121.016 76.9357C120.228 77.4045 119.61 78.0384 119.163 78.8374C118.715 79.6257 118.486 80.5046 118.475 81.4741V85.4851C118.475 86.6996 118.699 87.7489 119.147 88.6332C119.605 89.5174 120.249 90.1992 121.08 90.6786C121.911 91.158 122.897 91.3977 124.037 91.3977C124.793 91.3977 125.485 91.2912 126.114 91.0781C126.742 90.8651 127.28 90.5455 127.728 90.1193C128.175 89.6932 128.516 89.1712 128.751 88.5533L135.047 88.9688C134.727 90.4815 134.072 91.8026 133.081 92.9318C132.101 94.0504 130.833 94.924 129.278 95.5526C127.733 96.1705 125.949 96.4794 123.925 96.4794ZM139.633 96V71.4545H146.233V75.7372H146.489C146.936 74.2138 147.687 73.0632 148.742 72.2855C149.796 71.4972 151.011 71.103 152.385 71.103C152.726 71.103 153.094 71.1243 153.488 71.1669C153.882 71.2095 154.228 71.2681 154.527 71.3427V77.3832C154.207 77.2873 153.765 77.2021 153.2 77.1275C152.636 77.0529 152.119 77.0156 151.65 77.0156C150.649 77.0156 149.754 77.234 148.966 77.6708C148.188 78.0969 147.57 78.6935 147.112 79.4606C146.664 80.2276 146.441 81.1119 146.441 82.1133V96H139.633ZM164.342 96.4634C162.776 96.4634 161.381 96.1918 160.156 95.6484C158.93 95.0945 157.961 94.2795 157.247 93.2035C156.544 92.1168 156.193 90.7638 156.193 89.1445C156.193 87.7809 156.443 86.6357 156.944 85.7088C157.444 84.782 158.126 84.0362 158.989 83.4716C159.852 82.907 160.832 82.4808 161.929 82.1932C163.037 81.9055 164.199 81.7031 165.413 81.5859C166.841 81.4368 167.991 81.2983 168.865 81.1705C169.738 81.032 170.372 80.8295 170.766 80.5632C171.161 80.2969 171.358 79.9027 171.358 79.3807V79.2848C171.358 78.2727 171.038 77.4897 170.399 76.9357C169.77 76.3817 168.875 76.1048 167.714 76.1048C166.489 76.1048 165.514 76.3764 164.79 76.9197C164.065 77.4524 163.586 78.1236 163.352 78.9332L157.055 78.4219C157.375 76.9304 158.004 75.6413 158.941 74.5547C159.879 73.4574 161.088 72.6158 162.569 72.0298C164.06 71.4332 165.786 71.1349 167.746 71.1349C169.11 71.1349 170.415 71.2947 171.661 71.6143C172.918 71.9339 174.032 72.4293 175.001 73.1005C175.981 73.7717 176.754 74.6346 177.318 75.6893C177.883 76.7333 178.165 77.9851 178.165 79.4446V96H171.709V92.5962H171.517C171.123 93.3633 170.596 94.0398 169.935 94.6257C169.275 95.201 168.481 95.6538 167.554 95.984C166.628 96.3036 165.557 96.4634 164.342 96.4634ZM166.292 91.7653C167.293 91.7653 168.178 91.5682 168.945 91.174C169.712 90.7692 170.314 90.2259 170.75 89.544C171.187 88.8622 171.406 88.0898 171.406 87.2269V84.6222C171.193 84.7607 170.9 84.8885 170.527 85.0057C170.164 85.1122 169.754 85.2134 169.296 85.3093C168.838 85.3945 168.38 85.4744 167.922 85.549C167.464 85.6129 167.048 85.6715 166.675 85.7248C165.876 85.842 165.179 86.0284 164.582 86.2841C163.985 86.5398 163.522 86.886 163.192 87.3228C162.862 87.7489 162.696 88.2816 162.696 88.9208C162.696 89.8477 163.032 90.5561 163.703 91.0462C164.385 91.5256 165.248 91.7653 166.292 91.7653ZM196.502 71.4545V76.5682H181.721V71.4545H196.502ZM185.077 65.5739H191.884V88.4574C191.884 89.0859 191.98 89.576 192.172 89.9276C192.364 90.2685 192.63 90.5082 192.971 90.6467C193.322 90.7852 193.727 90.8544 194.185 90.8544C194.505 90.8544 194.824 90.8278 195.144 90.7745C195.464 90.7106 195.709 90.6626 195.879 90.6307L196.95 95.6964C196.609 95.8029 196.129 95.9254 195.512 96.0639C194.894 96.2131 194.143 96.3036 193.258 96.3356C191.618 96.3995 190.18 96.1811 188.944 95.6804C187.719 95.1797 186.765 94.402 186.083 93.3473C185.402 92.2926 185.066 90.9609 185.077 89.3523V65.5739ZM200.937 96V71.4545H207.744V96H200.937ZM204.357 68.2905C203.345 68.2905 202.476 67.9549 201.752 67.2837C201.038 66.6019 200.681 65.7869 200.681 64.8388C200.681 63.9013 201.038 63.0969 201.752 62.4258C202.476 61.744 203.345 61.4031 204.357 61.4031C205.369 61.4031 206.232 61.744 206.945 62.4258C207.67 63.0969 208.032 63.9013 208.032 64.8388C208.032 65.7869 207.67 66.6019 206.945 67.2837C206.232 67.9549 205.369 68.2905 204.357 68.2905ZM220.005 81.8097V96H213.198V71.4545H219.686V75.7852H219.973C220.516 74.3576 221.427 73.2283 222.706 72.3974C223.984 71.5558 225.534 71.1349 227.356 71.1349C229.061 71.1349 230.547 71.5078 231.814 72.2536C233.082 72.9993 234.068 74.0646 234.771 75.4496C235.474 76.8239 235.825 78.4645 235.825 80.3714V96H229.018V81.5859C229.029 80.0838 228.645 78.9119 227.867 78.0703C227.09 77.218 226.019 76.7919 224.655 76.7919C223.739 76.7919 222.929 76.989 222.226 77.3832C221.534 77.7773 220.991 78.3526 220.596 79.109C220.213 79.8548 220.016 80.755 220.005 81.8097ZM252.249 105.716C250.044 105.716 248.153 105.412 246.576 104.805C245.01 104.208 243.764 103.393 242.837 102.36C241.91 101.327 241.308 100.165 241.031 98.8764L247.327 98.0295C247.519 98.5195 247.822 98.9776 248.238 99.4038C248.653 99.8299 249.202 100.171 249.884 100.426C250.576 100.693 251.418 100.826 252.409 100.826C253.89 100.826 255.109 100.464 256.068 99.7393C257.038 99.0256 257.522 97.8271 257.522 96.1438V91.6534H257.235C256.936 92.3352 256.489 92.9798 255.892 93.587C255.296 94.1942 254.529 94.6896 253.591 95.0732C252.654 95.4567 251.535 95.6484 250.235 95.6484C248.392 95.6484 246.715 95.2223 245.202 94.37C243.7 93.5071 242.501 92.1914 241.606 90.4229C240.722 88.6438 240.28 86.396 240.28 83.6793C240.28 80.8988 240.733 78.5763 241.638 76.712C242.544 74.8477 243.748 73.4521 245.25 72.5252C246.762 71.5984 248.419 71.1349 250.22 71.1349C251.594 71.1349 252.744 71.3693 253.671 71.8381C254.598 72.2962 255.344 72.8714 255.908 73.5639C256.484 74.2457 256.926 74.9169 257.235 75.5774H257.49V71.4545H264.25V96.2397C264.25 98.3278 263.739 100.075 262.716 101.481C261.693 102.887 260.276 103.942 258.465 104.645C256.665 105.359 254.593 105.716 252.249 105.716ZM252.393 90.5348C253.49 90.5348 254.417 90.2631 255.173 89.7198C255.94 89.1658 256.526 88.3775 256.931 87.3548C257.347 86.3214 257.554 85.0856 257.554 83.6474C257.554 82.2092 257.352 80.9627 256.947 79.908C256.542 78.8427 255.956 78.017 255.189 77.4311C254.422 76.8452 253.49 76.5522 252.393 76.5522C251.274 76.5522 250.331 76.8558 249.564 77.4631C248.797 78.0597 248.217 78.8906 247.822 79.956C247.428 81.0213 247.231 82.2518 247.231 83.6474C247.231 85.0643 247.428 86.2894 247.822 87.3228C248.227 88.3455 248.808 89.1392 249.564 89.7038C250.331 90.2578 251.274 90.5348 252.393 90.5348ZM297.964 72.685C297.836 71.396 297.288 70.3945 296.318 69.6808C295.349 68.967 294.033 68.6101 292.371 68.6101C291.242 68.6101 290.288 68.7699 289.511 69.0895C288.733 69.3984 288.136 69.8299 287.721 70.3839C287.316 70.9379 287.114 71.5664 287.114 72.2695C287.092 72.8555 287.215 73.3668 287.481 73.8036C287.758 74.2404 288.136 74.6186 288.616 74.9382C289.095 75.2472 289.649 75.5188 290.278 75.7532C290.906 75.9769 291.577 76.1687 292.291 76.3285L295.231 77.0316C296.659 77.3512 297.969 77.7773 299.163 78.31C300.356 78.8427 301.389 79.4979 302.263 80.2756C303.136 81.0533 303.813 81.9695 304.292 83.0241C304.782 84.0788 305.033 85.288 305.043 86.6516C305.033 88.6545 304.521 90.391 303.509 91.8612C302.508 93.3207 301.059 94.4553 299.163 95.2649C297.277 96.0639 295.002 96.4634 292.339 96.4634C289.697 96.4634 287.396 96.0586 285.436 95.2489C283.486 94.4393 281.963 93.2408 280.865 91.6534C279.779 90.0554 279.209 88.0792 279.155 85.7248H285.851C285.926 86.8221 286.24 87.7383 286.794 88.4734C287.359 89.1978 288.11 89.7464 289.047 90.1193C289.995 90.4815 291.066 90.6626 292.259 90.6626C293.431 90.6626 294.448 90.4922 295.311 90.1513C296.185 89.8104 296.861 89.3363 297.341 88.729C297.82 88.1218 298.06 87.424 298.06 86.6357C298.06 85.9006 297.842 85.2827 297.405 84.782C296.979 84.2812 296.35 83.8551 295.519 83.5036C294.699 83.152 293.692 82.8324 292.499 82.5447L288.935 81.6499C286.176 80.9787 283.997 79.9293 282.399 78.5018C280.801 77.0742 280.008 75.1513 280.018 72.733C280.008 70.7514 280.535 69.0202 281.6 67.5394C282.676 66.0586 284.152 64.9027 286.027 64.0717C287.902 63.2408 290.033 62.8253 292.419 62.8253C294.848 62.8253 296.968 63.2408 298.779 64.0717C300.601 64.9027 302.018 66.0586 303.03 67.5394C304.042 69.0202 304.564 70.7354 304.596 72.685H297.964ZM313.772 105.205C312.909 105.205 312.1 105.135 311.343 104.997C310.598 104.869 309.98 104.704 309.49 104.501L311.024 99.4197C311.823 99.6648 312.542 99.7979 313.181 99.8192C313.831 99.8406 314.39 99.6914 314.859 99.3718C315.338 99.0522 315.727 98.5089 316.026 97.7418L316.425 96.7031L307.62 71.4545H314.779L319.861 89.4801H320.117L325.246 71.4545H332.453L322.913 98.6527C322.455 99.9737 321.832 101.124 321.043 102.104C320.266 103.095 319.28 103.857 318.087 104.39C316.894 104.933 315.456 105.205 313.772 105.205ZM356.359 78.4538L350.127 78.8374C350.021 78.3047 349.792 77.8253 349.44 77.3991C349.088 76.9624 348.625 76.6161 348.05 76.3604C347.485 76.0941 346.809 75.9609 346.02 75.9609C344.966 75.9609 344.076 76.1847 343.352 76.6321C342.627 77.0689 342.265 77.6548 342.265 78.3899C342.265 78.9759 342.499 79.4712 342.968 79.8761C343.437 80.2809 344.241 80.6058 345.381 80.8509L349.824 81.7457C352.21 82.2358 353.989 83.0241 355.161 84.1108C356.333 85.1974 356.919 86.625 356.919 88.3935C356.919 90.0021 356.445 91.4137 355.496 92.6282C354.559 93.8427 353.27 94.7908 351.629 95.4727C349.999 96.1438 348.119 96.4794 345.988 96.4794C342.739 96.4794 340.15 95.8029 338.222 94.4499C336.304 93.0863 335.18 91.2326 334.85 88.8888L341.546 88.5373C341.748 89.5281 342.238 90.2844 343.016 90.8065C343.794 91.3178 344.79 91.5735 346.004 91.5735C347.197 91.5735 348.156 91.3445 348.881 90.8864C349.616 90.4176 349.989 89.8157 349.999 89.0806C349.989 88.4627 349.728 87.9567 349.216 87.5625C348.705 87.1577 347.917 86.8487 346.851 86.6357L342.601 85.7887C340.204 85.3093 338.419 84.4783 337.247 83.2958C336.086 82.1133 335.505 80.6058 335.505 78.7734C335.505 77.1967 335.932 75.8384 336.784 74.6985C337.647 73.5586 338.856 72.6797 340.411 72.0618C341.977 71.4439 343.81 71.1349 345.908 71.1349C349.009 71.1349 351.448 71.7901 353.227 73.1005C355.017 74.4109 356.061 76.1953 356.359 78.4538ZM374.261 71.4545V76.5682H359.48V71.4545H374.261ZM362.835 65.5739H369.643V88.4574C369.643 89.0859 369.739 89.576 369.931 89.9276C370.122 90.2685 370.389 90.5082 370.73 90.6467C371.081 90.7852 371.486 90.8544 371.944 90.8544C372.264 90.8544 372.583 90.8278 372.903 90.7745C373.222 90.7106 373.467 90.6626 373.638 90.6307L374.709 95.6964C374.368 95.8029 373.888 95.9254 373.27 96.0639C372.652 96.2131 371.901 96.3036 371.017 96.3356C369.377 96.3995 367.938 96.1811 366.703 95.6804C365.477 95.1797 364.524 94.402 363.842 93.3473C363.16 92.2926 362.825 90.9609 362.835 89.3523V65.5739ZM389.618 96.4794C387.093 96.4794 384.92 95.968 383.098 94.9453C381.287 93.9119 379.891 92.4524 378.911 90.5668C377.931 88.6705 377.441 86.4279 377.441 83.8391C377.441 81.3143 377.931 79.0984 378.911 77.1914C379.891 75.2844 381.271 73.7983 383.05 72.733C384.84 71.6676 386.939 71.1349 389.346 71.1349C390.966 71.1349 392.473 71.396 393.869 71.918C395.275 72.4293 396.5 73.2017 397.544 74.2351C398.599 75.2685 399.419 76.5682 400.005 78.1342C400.591 79.6896 400.884 81.5114 400.884 83.5994V85.4691H380.158V81.2504H394.476C394.476 80.2702 394.263 79.402 393.837 78.6456C393.411 77.8892 392.819 77.2979 392.063 76.8718C391.317 76.435 390.449 76.2166 389.458 76.2166C388.425 76.2166 387.509 76.4563 386.71 76.9357C385.921 77.4045 385.303 78.0384 384.856 78.8374C384.409 79.6257 384.179 80.5046 384.169 81.4741V85.4851C384.169 86.6996 384.393 87.7489 384.84 88.6332C385.298 89.5174 385.943 90.1992 386.774 90.6786C387.605 91.158 388.59 91.3977 389.73 91.3977C390.486 91.3977 391.179 91.2912 391.807 91.0781C392.436 90.8651 392.974 90.5455 393.421 90.1193C393.869 89.6932 394.21 89.1712 394.444 88.5533L400.74 88.9688C400.421 90.4815 399.765 91.8026 398.775 92.9318C397.795 94.0504 396.527 94.924 394.971 95.5526C393.427 96.1705 391.642 96.4794 389.618 96.4794ZM405.326 96V71.4545H411.814V75.7852H412.102C412.613 74.3469 413.466 73.2124 414.659 72.3814C415.852 71.5504 417.28 71.1349 418.942 71.1349C420.625 71.1349 422.058 71.5558 423.24 72.3974C424.423 73.2283 425.211 74.3576 425.605 75.7852H425.861C426.362 74.3789 427.267 73.255 428.578 72.4134C429.899 71.5611 431.459 71.1349 433.26 71.1349C435.55 71.1349 437.409 71.8647 438.837 73.3242C440.275 74.7731 440.994 76.8292 440.994 79.4925V96H434.203V80.8349C434.203 79.4712 433.84 78.4485 433.116 77.7667C432.391 77.0849 431.486 76.744 430.399 76.744C429.163 76.744 428.199 77.1381 427.507 77.9265C426.814 78.7042 426.468 79.7322 426.468 81.0107V96H419.868V80.6911C419.868 79.4872 419.522 78.5284 418.83 77.8146C418.148 77.1009 417.248 76.744 416.129 76.744C415.373 76.744 414.691 76.9357 414.084 77.3192C413.487 77.6921 413.013 78.2195 412.661 78.9013C412.31 79.5724 412.134 80.3608 412.134 81.2663V96H405.326Z" fill="#EAEAEA"/>
</svg>
