<svg width="437" height="159" viewBox="0 0 437 159" fill="none" xmlns="http://www.w3.org/2000/svg">
<rect width="437" height="159" rx="60" fill="#5990EC"/>
<path d="M75.6324 96V63.2727H88.5443C91.0266 63.2727 93.1413 63.7468 94.8884 64.695C96.6356 65.6325 97.9673 66.9375 98.8834 68.6101C99.8103 70.272 100.274 72.1896 100.274 74.3629C100.274 76.5362 99.805 78.4538 98.8675 80.1158C97.93 81.7777 96.5717 83.0721 94.7925 83.9989C93.0241 84.9258 90.8827 85.3892 88.3685 85.3892H80.1388V79.8441H87.2499C88.5816 79.8441 89.6789 79.6151 90.5418 79.157C91.4154 78.6882 92.0653 78.0437 92.4914 77.2234C92.9282 76.3924 93.1466 75.4389 93.1466 74.3629C93.1466 73.2763 92.9282 72.3281 92.4914 71.5185C92.0653 70.6982 91.4154 70.0643 90.5418 69.6168C89.6682 69.1587 88.5603 68.9297 87.218 68.9297H82.5518V96H75.6324ZM104.64 96V71.4545H111.24V75.7372H111.496C111.943 74.2138 112.694 73.0632 113.749 72.2855C114.804 71.4972 116.018 71.103 117.392 71.103C117.733 71.103 118.101 71.1243 118.495 71.1669C118.889 71.2095 119.235 71.2681 119.534 71.3427V77.3832C119.214 77.2873 118.772 77.2021 118.207 77.1275C117.643 77.0529 117.126 77.0156 116.657 77.0156C115.656 77.0156 114.761 77.234 113.973 77.6708C113.195 78.0969 112.577 78.6935 112.119 79.4606C111.672 80.2276 111.448 81.1119 111.448 82.1133V96H104.64ZM133.001 96.4794C130.519 96.4794 128.372 95.9521 126.561 94.8974C124.761 93.832 123.37 92.3512 122.39 90.4549C121.41 88.5479 120.92 86.3374 120.92 83.8232C120.92 81.2876 121.41 79.0717 122.39 77.1754C123.37 75.2685 124.761 73.7876 126.561 72.733C128.372 71.6676 130.519 71.1349 133.001 71.1349C135.483 71.1349 137.625 71.6676 139.425 72.733C141.236 73.7876 142.632 75.2685 143.612 77.1754C144.592 79.0717 145.082 81.2876 145.082 83.8232C145.082 86.3374 144.592 88.5479 143.612 90.4549C142.632 92.3512 141.236 93.832 139.425 94.8974C137.625 95.9521 135.483 96.4794 133.001 96.4794ZM133.033 91.206C134.162 91.206 135.105 90.8864 135.861 90.2472C136.618 89.5973 137.188 88.7131 137.571 87.5945C137.965 86.4759 138.163 85.2028 138.163 83.7752C138.163 82.3477 137.965 81.0746 137.571 79.956C137.188 78.8374 136.618 77.9531 135.861 77.3033C135.105 76.6534 134.162 76.3285 133.033 76.3285C131.893 76.3285 130.934 76.6534 130.157 77.3033C129.389 77.9531 128.809 78.8374 128.415 79.956C128.031 81.0746 127.839 82.3477 127.839 83.7752C127.839 85.2028 128.031 86.4759 128.415 87.5945C128.809 88.7131 129.389 89.5973 130.157 90.2472C130.934 90.8864 131.893 91.206 133.033 91.206ZM160.567 105.716C158.361 105.716 156.47 105.412 154.894 104.805C153.328 104.208 152.081 103.393 151.154 102.36C150.228 101.327 149.626 100.165 149.349 98.8764L155.645 98.0295C155.837 98.5195 156.14 98.9776 156.556 99.4038C156.971 99.8299 157.52 100.171 158.202 100.426C158.894 100.693 159.736 100.826 160.726 100.826C162.207 100.826 163.427 100.464 164.386 99.7393C165.355 99.0256 165.84 97.8271 165.84 96.1438V91.6534H165.552C165.254 92.3352 164.807 92.9798 164.21 93.587C163.614 94.1942 162.847 94.6896 161.909 95.0732C160.972 95.4567 159.853 95.6484 158.553 95.6484C156.71 95.6484 155.032 95.2223 153.519 94.37C152.017 93.5071 150.819 92.1914 149.924 90.4229C149.04 88.6438 148.598 86.396 148.598 83.6793C148.598 80.8988 149.05 78.5763 149.956 76.712C150.861 74.8477 152.065 73.4521 153.567 72.5252C155.08 71.5984 156.737 71.1349 158.537 71.1349C159.911 71.1349 161.062 71.3693 161.989 71.8381C162.916 72.2962 163.661 72.8714 164.226 73.5639C164.801 74.2457 165.244 74.9169 165.552 75.5774H165.808V71.4545H172.568V96.2397C172.568 98.3278 172.056 100.075 171.034 101.481C170.011 102.887 168.594 103.942 166.783 104.645C164.983 105.359 162.91 105.716 160.567 105.716ZM160.711 90.5348C161.808 90.5348 162.735 90.2631 163.491 89.7198C164.258 89.1658 164.844 88.3775 165.249 87.3548C165.664 86.3214 165.872 85.0856 165.872 83.6474C165.872 82.2092 165.67 80.9627 165.265 79.908C164.86 78.8427 164.274 78.017 163.507 77.4311C162.74 76.8452 161.808 76.5522 160.711 76.5522C159.592 76.5522 158.649 76.8558 157.882 77.4631C157.115 78.0597 156.534 78.8906 156.14 79.956C155.746 81.0213 155.549 82.2518 155.549 83.6474C155.549 85.0643 155.746 86.2894 156.14 87.3228C156.545 88.3455 157.126 89.1392 157.882 89.7038C158.649 90.2578 159.592 90.5348 160.711 90.5348ZM177.985 96V71.4545H184.585V75.7372H184.84C185.288 74.2138 186.039 73.0632 187.094 72.2855C188.148 71.4972 189.363 71.103 190.737 71.103C191.078 71.103 191.446 71.1243 191.84 71.1669C192.234 71.2095 192.58 71.2681 192.878 71.3427V77.3832C192.559 77.2873 192.117 77.2021 191.552 77.1275C190.987 77.0529 190.471 77.0156 190.002 77.0156C189.001 77.0156 188.106 77.234 187.317 77.6708C186.54 78.0969 185.922 78.6935 185.464 79.4606C185.016 80.2276 184.793 81.1119 184.793 82.1133V96H177.985ZM202.694 96.4634C201.128 96.4634 199.733 96.1918 198.507 95.6484C197.282 95.0945 196.313 94.2795 195.599 93.2035C194.896 92.1168 194.544 90.7638 194.544 89.1445C194.544 87.7809 194.795 86.6357 195.295 85.7088C195.796 84.782 196.478 84.0362 197.341 83.4716C198.204 82.907 199.184 82.4808 200.281 82.1932C201.389 81.9055 202.55 81.7031 203.765 81.5859C205.192 81.4368 206.343 81.2983 207.217 81.1705C208.09 81.032 208.724 80.8295 209.118 80.5632C209.512 80.2969 209.71 79.9027 209.71 79.3807V79.2848C209.71 78.2727 209.39 77.4897 208.751 76.9357C208.122 76.3817 207.227 76.1048 206.066 76.1048C204.841 76.1048 203.866 76.3764 203.142 76.9197C202.417 77.4524 201.938 78.1236 201.703 78.9332L195.407 78.4219C195.727 76.9304 196.355 75.6413 197.293 74.5547C198.23 73.4574 199.44 72.6158 200.92 72.0298C202.412 71.4332 204.138 71.1349 206.098 71.1349C207.462 71.1349 208.767 71.2947 210.013 71.6143C211.27 71.9339 212.384 72.4293 213.353 73.1005C214.333 73.7717 215.105 74.6346 215.67 75.6893C216.235 76.7333 216.517 77.9851 216.517 79.4446V96H210.061V92.5962H209.869C209.475 93.3633 208.948 94.0398 208.287 94.6257C207.627 95.201 206.833 95.6538 205.906 95.984C204.979 96.3036 203.909 96.4634 202.694 96.4634ZM204.644 91.7653C205.645 91.7653 206.529 91.5682 207.297 91.174C208.064 90.7692 208.665 90.2259 209.102 89.544C209.539 88.8622 209.757 88.0898 209.757 87.2269V84.6222C209.544 84.7607 209.251 84.8885 208.879 85.0057C208.516 85.1122 208.106 85.2134 207.648 85.3093C207.19 85.3945 206.732 85.4744 206.274 85.549C205.816 85.6129 205.4 85.6715 205.027 85.7248C204.228 85.842 203.531 86.0284 202.934 86.2841C202.337 86.5398 201.874 86.886 201.544 87.3228C201.213 87.7489 201.048 88.2816 201.048 88.9208C201.048 89.8477 201.384 90.5561 202.055 91.0462C202.737 91.5256 203.6 91.7653 204.644 91.7653ZM221.798 96V71.4545H228.286V75.7852H228.574C229.085 74.3469 229.938 73.2124 231.131 72.3814C232.324 71.5504 233.752 71.1349 235.414 71.1349C237.097 71.1349 238.53 71.5558 239.712 72.3974C240.895 73.2283 241.683 74.3576 242.077 75.7852H242.333C242.834 74.3789 243.739 73.255 245.05 72.4134C246.371 71.5611 247.931 71.1349 249.732 71.1349C252.022 71.1349 253.881 71.8647 255.309 73.3242C256.747 74.7731 257.466 76.8292 257.466 79.4925V96H250.675V80.8349C250.675 79.4712 250.312 78.4485 249.588 77.7667C248.863 77.0849 247.958 76.744 246.871 76.744C245.635 76.744 244.671 77.1381 243.979 77.9265C243.286 78.7042 242.94 79.7322 242.94 81.0107V96H236.34V80.6911C236.34 79.4872 235.994 78.5284 235.302 77.8146C234.62 77.1009 233.72 76.744 232.601 76.744C231.845 76.744 231.163 76.9357 230.556 77.3192C229.959 77.6921 229.485 78.2195 229.133 78.9013C228.782 79.5724 228.606 80.3608 228.606 81.2663V96H221.798ZM262.843 96V71.4545H269.331V75.7852H269.619C270.13 74.3469 270.983 73.2124 272.176 72.3814C273.369 71.5504 274.797 71.1349 276.458 71.1349C278.142 71.1349 279.575 71.5558 280.757 72.3974C281.94 73.2283 282.728 74.3576 283.122 75.7852H283.378C283.879 74.3789 284.784 73.255 286.094 72.4134C287.415 71.5611 288.976 71.1349 290.777 71.1349C293.067 71.1349 294.926 71.8647 296.354 73.3242C297.792 74.7731 298.511 76.8292 298.511 79.4925V96H291.719V80.8349C291.719 79.4712 291.357 78.4485 290.633 77.7667C289.908 77.0849 289.003 76.744 287.916 76.744C286.68 76.744 285.716 77.1381 285.024 77.9265C284.331 78.7042 283.985 79.7322 283.985 81.0107V96H277.385V80.6911C277.385 79.4872 277.039 78.5284 276.347 77.8146C275.665 77.1009 274.765 76.744 273.646 76.744C272.89 76.744 272.208 76.9357 271.601 77.3192C271.004 77.6921 270.53 78.2195 270.178 78.9013C269.827 79.5724 269.651 80.3608 269.651 81.2663V96H262.843ZM303.888 96V71.4545H310.696V96H303.888ZM307.308 68.2905C306.296 68.2905 305.428 67.9549 304.703 67.2837C303.99 66.6019 303.633 65.7869 303.633 64.8388C303.633 63.9013 303.99 63.0969 304.703 62.4258C305.428 61.744 306.296 61.4031 307.308 61.4031C308.32 61.4031 309.183 61.744 309.897 62.4258C310.621 63.0969 310.983 63.9013 310.983 64.8388C310.983 65.7869 310.621 66.6019 309.897 67.2837C309.183 67.9549 308.32 68.2905 307.308 68.2905ZM322.957 81.8097V96H316.149V71.4545H322.637V75.7852H322.925C323.468 74.3576 324.379 73.2283 325.657 72.3974C326.936 71.5558 328.486 71.1349 330.307 71.1349C332.012 71.1349 333.498 71.5078 334.766 72.2536C336.034 72.9993 337.019 74.0646 337.722 75.4496C338.425 76.8239 338.777 78.4645 338.777 80.3714V96H331.969V81.5859C331.98 80.0838 331.597 78.9119 330.819 78.0703C330.041 77.218 328.97 76.7919 327.607 76.7919C326.691 76.7919 325.881 76.989 325.178 77.3832C324.485 77.7773 323.942 78.3526 323.548 79.109C323.164 79.8548 322.967 80.755 322.957 81.8097ZM355.2 105.716C352.995 105.716 351.104 105.412 349.528 104.805C347.961 104.208 346.715 103.393 345.788 102.36C344.861 101.327 344.259 100.165 343.982 98.8764L350.279 98.0295C350.47 98.5195 350.774 98.9776 351.189 99.4038C351.605 99.8299 352.154 100.171 352.835 100.426C353.528 100.693 354.37 100.826 355.36 100.826C356.841 100.826 358.061 100.464 359.02 99.7393C359.989 99.0256 360.474 97.8271 360.474 96.1438V91.6534H360.186C359.888 92.3352 359.441 92.9798 358.844 93.587C358.247 94.1942 357.48 94.6896 356.543 95.0732C355.605 95.4567 354.487 95.6484 353.187 95.6484C351.344 95.6484 349.666 95.2223 348.153 94.37C346.651 93.5071 345.453 92.1914 344.558 90.4229C343.673 88.6438 343.231 86.396 343.231 83.6793C343.231 80.8988 343.684 78.5763 344.59 76.712C345.495 74.8477 346.699 73.4521 348.201 72.5252C349.714 71.5984 351.371 71.1349 353.171 71.1349C354.545 71.1349 355.696 71.3693 356.623 71.8381C357.55 72.2962 358.295 72.8714 358.86 73.5639C359.435 74.2457 359.877 74.9169 360.186 75.5774H360.442V71.4545H367.202V96.2397C367.202 98.3278 366.69 100.075 365.667 101.481C364.645 102.887 363.228 103.942 361.417 104.645C359.616 105.359 357.544 105.716 355.2 105.716ZM355.344 90.5348C356.442 90.5348 357.368 90.2631 358.125 89.7198C358.892 89.1658 359.478 88.3775 359.883 87.3548C360.298 86.3214 360.506 85.0856 360.506 83.6474C360.506 82.2092 360.303 80.9627 359.899 79.908C359.494 78.8427 358.908 78.017 358.141 77.4311C357.374 76.8452 356.442 76.5522 355.344 76.5522C354.226 76.5522 353.283 76.8558 352.516 77.4631C351.749 78.0597 351.168 78.8906 350.774 79.956C350.38 81.0213 350.183 82.2518 350.183 83.6474C350.183 85.0643 350.38 86.2894 350.774 87.3228C351.179 88.3455 351.759 89.1392 352.516 89.7038C353.283 90.2578 354.226 90.5348 355.344 90.5348Z" fill="#EAEAEA"/>
</svg>
