<svg width="538" height="159" viewBox="0 0 538 159" fill="none" xmlns="http://www.w3.org/2000/svg">
<rect width="538" height="159" rx="60" fill="#9C5C5C"/>
<path d="M48.3762 72.685C48.2484 71.396 47.6997 70.3945 46.7302 69.6808C45.7608 68.967 44.4451 68.6101 42.7832 68.6101C41.6539 68.6101 40.7004 68.7699 39.9227 69.0895C39.145 69.3984 38.5484 69.8299 38.1329 70.3839C37.7281 70.9379 37.5257 71.5664 37.5257 72.2695C37.5044 72.8555 37.6269 73.3668 37.8932 73.8036C38.1702 74.2404 38.5484 74.6186 39.0278 74.9382C39.5072 75.2472 40.0612 75.5188 40.6898 75.7532C41.3183 75.9769 41.9895 76.1687 42.7033 76.3285L45.6436 77.0316C47.0712 77.3512 48.3815 77.7773 49.5747 78.31C50.7679 78.8427 51.8013 79.4979 52.6748 80.2756C53.5484 81.0533 54.2249 81.9695 54.7043 83.0241C55.1944 84.0788 55.4447 85.288 55.4554 86.6516C55.4447 88.6545 54.9334 90.391 53.9213 91.8612C52.9199 93.3207 51.471 94.4553 49.5747 95.2649C47.6891 96.0639 45.4146 96.4634 42.7512 96.4634C40.1092 96.4634 37.808 96.0586 35.8478 95.2489C33.8982 94.4393 32.3748 93.2408 31.2775 91.6534C30.1908 90.0554 29.6209 88.0792 29.5676 85.7248H36.2633C36.3378 86.8221 36.6521 87.7383 37.2061 88.4734C37.7707 89.1978 38.5218 89.7464 39.4593 90.1193C40.4074 90.4815 41.4781 90.6626 42.6713 90.6626C43.8432 90.6626 44.8606 90.4922 45.7235 90.1513C46.5971 89.8104 47.2736 89.3363 47.753 88.729C48.2324 88.1218 48.4721 87.424 48.4721 86.6357C48.4721 85.9006 48.2537 85.2827 47.8169 84.782C47.3908 84.2812 46.7622 83.8551 45.9312 83.5036C45.1109 83.152 44.1042 82.8324 42.911 82.5447L39.3474 81.6499C36.5882 80.9787 34.4096 79.9293 32.8116 78.5018C31.2136 77.0742 30.4199 75.1513 30.4305 72.733C30.4199 70.7514 30.9472 69.0202 32.0126 67.5394C33.0886 66.0586 34.5641 64.9027 36.4391 64.0717C38.3141 63.2408 40.4447 62.8253 42.8311 62.8253C45.2601 62.8253 47.3801 63.2408 49.1912 64.0717C51.0129 64.9027 52.4298 66.0586 53.4419 67.5394C54.454 69.0202 54.976 70.7354 55.0079 72.685H48.3762ZM71.072 96.4794C68.5897 96.4794 66.443 95.9521 64.632 94.8974C62.8315 93.832 61.4413 92.3512 60.4612 90.4549C59.481 88.5479 58.991 86.3374 58.991 83.8232C58.991 81.2876 59.481 79.0717 60.4612 77.1754C61.4413 75.2685 62.8315 73.7876 64.632 72.733C66.443 71.6676 68.5897 71.1349 71.072 71.1349C73.5542 71.1349 75.6955 71.6676 77.496 72.733C79.307 73.7876 80.7026 75.2685 81.6827 77.1754C82.6629 79.0717 83.1529 81.2876 83.1529 83.8232C83.1529 86.3374 82.6629 88.5479 81.6827 90.4549C80.7026 92.3512 79.307 93.832 77.496 94.8974C75.6955 95.9521 73.5542 96.4794 71.072 96.4794ZM71.1039 91.206C72.2332 91.206 73.176 90.8864 73.9324 90.2472C74.6888 89.5973 75.2587 88.7131 75.6423 87.5945C76.0364 86.4759 76.2335 85.2028 76.2335 83.7752C76.2335 82.3477 76.0364 81.0746 75.6423 79.956C75.2587 78.8374 74.6888 77.9531 73.9324 77.3033C73.176 76.6534 72.2332 76.3285 71.1039 76.3285C69.964 76.3285 69.0052 76.6534 68.2275 77.3033C67.4604 77.9531 66.8798 78.8374 66.4857 79.956C66.1021 81.0746 65.9104 82.3477 65.9104 83.7752C65.9104 85.2028 66.1021 86.4759 66.4857 87.5945C66.8798 88.7131 67.4604 89.5973 68.2275 90.2472C69.0052 90.8864 69.964 91.206 71.1039 91.206ZM100.779 71.4545V76.5682H85.6298V71.4545H100.779ZM89.0975 96V69.6808C89.0975 67.9016 89.4438 66.4261 90.1362 65.2543C90.8394 64.0824 91.7982 63.2035 93.0127 62.6175C94.2271 62.0316 95.6068 61.7386 97.1515 61.7386C98.1955 61.7386 99.149 61.8185 100.012 61.9783C100.886 62.1381 101.535 62.282 101.962 62.4098L100.747 67.5234C100.481 67.4382 100.15 67.3583 99.7563 67.2837C99.3727 67.2092 98.9786 67.1719 98.5737 67.1719C97.5723 67.1719 96.8745 67.4062 96.4803 67.875C96.0862 68.3331 95.8891 68.9776 95.8891 69.8086V96H89.0975ZM117.994 71.4545V76.5682H103.212V71.4545H117.994ZM106.568 65.5739H113.375V88.4574C113.375 89.0859 113.471 89.576 113.663 89.9276C113.855 90.2685 114.121 90.5082 114.462 90.6467C114.814 90.7852 115.218 90.8544 115.676 90.8544C115.996 90.8544 116.316 90.8278 116.635 90.7745C116.955 90.7106 117.2 90.6626 117.37 90.6307L118.441 95.6964C118.1 95.8029 117.621 95.9254 117.003 96.0639C116.385 96.2131 115.634 96.3036 114.75 96.3356C113.109 96.3995 111.671 96.1811 110.435 95.6804C109.21 95.1797 108.256 94.402 107.575 93.3473C106.893 92.2926 106.557 90.9609 106.568 89.3523V65.5739ZM127.27 96L120.59 71.4545H127.478L131.281 87.946H131.505L135.468 71.4545H142.227L146.254 87.8501H146.462L150.201 71.4545H157.073L150.409 96H143.202L138.983 80.5632H138.68L134.461 96H127.27ZM167.704 96.4634C166.138 96.4634 164.742 96.1918 163.517 95.6484C162.292 95.0945 161.322 94.2795 160.609 93.2035C159.905 92.1168 159.554 90.7638 159.554 89.1445C159.554 87.7809 159.804 86.6357 160.305 85.7088C160.806 84.782 161.487 84.0362 162.35 83.4716C163.213 82.907 164.193 82.4808 165.291 82.1932C166.399 81.9055 167.56 81.7031 168.774 81.5859C170.202 81.4368 171.352 81.2983 172.226 81.1705C173.1 81.032 173.734 80.8295 174.128 80.5632C174.522 80.2969 174.719 79.9027 174.719 79.3807V79.2848C174.719 78.2727 174.399 77.4897 173.76 76.9357C173.132 76.3817 172.237 76.1048 171.076 76.1048C169.85 76.1048 168.876 76.3764 168.151 76.9197C167.427 77.4524 166.947 78.1236 166.713 78.9332L160.417 78.4219C160.736 76.9304 161.365 75.6413 162.302 74.5547C163.24 73.4574 164.449 72.6158 165.93 72.0298C167.421 71.4332 169.147 71.1349 171.107 71.1349C172.471 71.1349 173.776 71.2947 175.023 71.6143C176.28 71.9339 177.393 72.4293 178.362 73.1005C179.343 73.7717 180.115 74.6346 180.68 75.6893C181.244 76.7333 181.526 77.9851 181.526 79.4446V96H175.071V92.5962H174.879C174.485 93.3633 173.957 94.0398 173.297 94.6257C172.636 95.201 171.843 95.6538 170.916 95.984C169.989 96.3036 168.918 96.4634 167.704 96.4634ZM169.653 91.7653C170.655 91.7653 171.539 91.5682 172.306 91.174C173.073 90.7692 173.675 90.2259 174.112 89.544C174.549 88.8622 174.767 88.0898 174.767 87.2269V84.6222C174.554 84.7607 174.261 84.8885 173.888 85.0057C173.526 85.1122 173.116 85.2134 172.658 85.3093C172.199 85.3945 171.741 85.4744 171.283 85.549C170.825 85.6129 170.41 85.6715 170.037 85.7248C169.238 85.842 168.54 86.0284 167.943 86.2841C167.347 86.5398 166.883 86.886 166.553 87.3228C166.223 87.7489 166.058 88.2816 166.058 88.9208C166.058 89.8477 166.393 90.5561 167.064 91.0462C167.746 91.5256 168.609 91.7653 169.653 91.7653ZM186.808 96V71.4545H193.408V75.7372H193.663C194.111 74.2138 194.862 73.0632 195.917 72.2855C196.971 71.4972 198.186 71.103 199.56 71.103C199.901 71.103 200.269 71.1243 200.663 71.1669C201.057 71.2095 201.403 71.2681 201.701 71.3427V77.3832C201.382 77.2873 200.94 77.2021 200.375 77.1275C199.81 77.0529 199.294 77.0156 198.825 77.0156C197.824 77.0156 196.929 77.234 196.14 77.6708C195.363 78.0969 194.745 78.6935 194.287 79.4606C193.839 80.2276 193.615 81.1119 193.615 82.1133V96H186.808ZM215.265 96.4794C212.74 96.4794 210.566 95.968 208.745 94.9453C206.934 93.9119 205.538 92.4524 204.558 90.5668C203.578 88.6705 203.088 86.4279 203.088 83.8391C203.088 81.3143 203.578 79.0984 204.558 77.1914C205.538 75.2844 206.918 73.7983 208.697 72.733C210.486 71.6676 212.585 71.1349 214.993 71.1349C216.612 71.1349 218.12 71.396 219.515 71.918C220.921 72.4293 222.147 73.2017 223.191 74.2351C224.245 75.2685 225.066 76.5682 225.652 78.1342C226.238 79.6896 226.53 81.5114 226.53 83.5994V85.4691H205.804V81.2504H220.122C220.122 80.2702 219.909 79.402 219.483 78.6456C219.057 77.8892 218.466 77.2979 217.709 76.8718C216.964 76.435 216.095 76.2166 215.105 76.2166C214.071 76.2166 213.155 76.4563 212.356 76.9357C211.568 77.4045 210.95 78.0384 210.502 78.8374C210.055 79.6257 209.826 80.5046 209.815 81.4741V85.4851C209.815 86.6996 210.039 87.7489 210.486 88.6332C210.945 89.5174 211.589 90.1992 212.42 90.6786C213.251 91.158 214.236 91.3977 215.376 91.3977C216.133 91.3977 216.825 91.2912 217.454 91.0781C218.082 90.8651 218.62 90.5455 219.068 90.1193C219.515 89.6932 219.856 89.1712 220.091 88.5533L226.387 88.9688C226.067 90.4815 225.412 91.8026 224.421 92.9318C223.441 94.0504 222.173 94.924 220.618 95.5526C219.073 96.1705 217.289 96.4794 215.265 96.4794ZM252.574 96.4794C250.049 96.4794 247.876 95.968 246.054 94.9453C244.243 93.9119 242.848 92.4524 241.867 90.5668C240.887 88.6705 240.397 86.4279 240.397 83.8391C240.397 81.3143 240.887 79.0984 241.867 77.1914C242.848 75.2844 244.227 73.7983 246.006 72.733C247.796 71.6676 249.895 71.1349 252.302 71.1349C253.922 71.1349 255.429 71.396 256.825 71.918C258.231 72.4293 259.456 73.2017 260.5 74.2351C261.555 75.2685 262.375 76.5682 262.961 78.1342C263.547 79.6896 263.84 81.5114 263.84 83.5994V85.4691H243.114V81.2504H257.432C257.432 80.2702 257.219 79.402 256.793 78.6456C256.367 77.8892 255.775 77.2979 255.019 76.8718C254.273 76.435 253.405 76.2166 252.414 76.2166C251.381 76.2166 250.465 76.4563 249.666 76.9357C248.877 77.4045 248.259 78.0384 247.812 78.8374C247.365 79.6257 247.136 80.5046 247.125 81.4741V85.4851C247.125 86.6996 247.349 87.7489 247.796 88.6332C248.254 89.5174 248.899 90.1992 249.73 90.6786C250.561 91.158 251.546 91.3977 252.686 91.3977C253.442 91.3977 254.135 91.2912 254.763 91.0781C255.392 90.8651 255.93 90.5455 256.377 90.1193C256.825 89.6932 257.166 89.1712 257.4 88.5533L263.696 88.9688C263.377 90.4815 262.721 91.8026 261.731 92.9318C260.751 94.0504 259.483 94.924 257.927 95.5526C256.383 96.1705 254.598 96.4794 252.574 96.4794ZM275.09 81.8097V96H268.283V71.4545H274.77V75.7852H275.058C275.601 74.3576 276.512 73.2283 277.791 72.3974C279.069 71.5558 280.619 71.1349 282.441 71.1349C284.145 71.1349 285.632 71.5078 286.899 72.2536C288.167 72.9993 289.153 74.0646 289.856 75.4496C290.559 76.8239 290.91 78.4645 290.91 80.3714V96H284.103V81.5859C284.114 80.0838 283.73 78.9119 282.952 78.0703C282.175 77.218 281.104 76.7919 279.74 76.7919C278.824 76.7919 278.014 76.989 277.311 77.3832C276.619 77.7773 276.076 78.3526 275.681 79.109C275.298 79.8548 275.101 80.755 275.09 81.8097ZM307.334 105.716C305.129 105.716 303.238 105.412 301.661 104.805C300.095 104.208 298.848 103.393 297.922 102.36C296.995 101.327 296.393 100.165 296.116 98.8764L302.412 98.0295C302.604 98.5195 302.907 98.9776 303.323 99.4038C303.738 99.8299 304.287 100.171 304.969 100.426C305.661 100.693 306.503 100.826 307.494 100.826C308.975 100.826 310.194 100.464 311.153 99.7393C312.123 99.0256 312.607 97.8271 312.607 96.1438V91.6534H312.32C312.021 92.3352 311.574 92.9798 310.977 93.587C310.381 94.1942 309.614 94.6896 308.676 95.0732C307.739 95.4567 306.62 95.6484 305.32 95.6484C303.477 95.6484 301.799 95.2223 300.287 94.37C298.785 93.5071 297.586 92.1914 296.691 90.4229C295.807 88.6438 295.365 86.396 295.365 83.6793C295.365 80.8988 295.818 78.5763 296.723 76.712C297.629 74.8477 298.833 73.4521 300.335 72.5252C301.847 71.5984 303.504 71.1349 305.304 71.1349C306.679 71.1349 307.829 71.3693 308.756 71.8381C309.683 72.2962 310.429 72.8714 310.993 73.5639C311.569 74.2457 312.011 74.9169 312.32 75.5774H312.575V71.4545H319.335V96.2397C319.335 98.3278 318.824 100.075 317.801 101.481C316.778 102.887 315.361 103.942 313.55 104.645C311.75 105.359 309.678 105.716 307.334 105.716ZM307.478 90.5348C308.575 90.5348 309.502 90.2631 310.258 89.7198C311.025 89.1658 311.611 88.3775 312.016 87.3548C312.432 86.3214 312.639 85.0856 312.639 83.6474C312.639 82.2092 312.437 80.9627 312.032 79.908C311.627 78.8427 311.041 78.017 310.274 77.4311C309.507 76.8452 308.575 76.5522 307.478 76.5522C306.359 76.5522 305.416 76.8558 304.649 77.4631C303.882 78.0597 303.302 78.8906 302.907 79.956C302.513 81.0213 302.316 82.2518 302.316 83.6474C302.316 85.0643 302.513 86.2894 302.907 87.3228C303.312 88.3455 303.893 89.1392 304.649 89.7038C305.416 90.2578 306.359 90.5348 307.478 90.5348ZM324.752 96V71.4545H331.56V96H324.752ZM328.172 68.2905C327.16 68.2905 326.292 67.9549 325.567 67.2837C324.853 66.6019 324.497 65.7869 324.497 64.8388C324.497 63.9013 324.853 63.0969 325.567 62.4258C326.292 61.744 327.16 61.4031 328.172 61.4031C329.184 61.4031 330.047 61.744 330.761 62.4258C331.485 63.0969 331.847 63.9013 331.847 64.8388C331.847 65.7869 331.485 66.6019 330.761 67.2837C330.047 67.9549 329.184 68.2905 328.172 68.2905ZM343.821 81.8097V96H337.013V71.4545H343.501V75.7852H343.789C344.332 74.3576 345.243 73.2283 346.521 72.3974C347.8 71.5558 349.35 71.1349 351.171 71.1349C352.876 71.1349 354.362 71.5078 355.63 72.2536C356.898 72.9993 357.883 74.0646 358.586 75.4496C359.289 76.8239 359.641 78.4645 359.641 80.3714V96H352.833V81.5859C352.844 80.0838 352.46 78.9119 351.683 78.0703C350.905 77.218 349.834 76.7919 348.471 76.7919C347.555 76.7919 346.745 76.989 346.042 77.3832C345.349 77.7773 344.806 78.3526 344.412 79.109C344.028 79.8548 343.831 80.755 343.821 81.8097ZM376.192 96.4794C373.667 96.4794 371.494 95.968 369.672 94.9453C367.861 93.9119 366.466 92.4524 365.486 90.5668C364.505 88.6705 364.015 86.4279 364.015 83.8391C364.015 81.3143 364.505 79.0984 365.486 77.1914C366.466 75.2844 367.845 73.7983 369.624 72.733C371.414 71.6676 373.513 71.1349 375.921 71.1349C377.54 71.1349 379.047 71.396 380.443 71.918C381.849 72.4293 383.074 73.2017 384.118 74.2351C385.173 75.2685 385.993 76.5682 386.579 78.1342C387.165 79.6896 387.458 81.5114 387.458 83.5994V85.4691H366.732V81.2504H381.05C381.05 80.2702 380.837 79.402 380.411 78.6456C379.985 77.8892 379.394 77.2979 378.637 76.8718C377.891 76.435 377.023 76.2166 376.032 76.2166C374.999 76.2166 374.083 76.4563 373.284 76.9357C372.496 77.4045 371.878 78.0384 371.43 78.8374C370.983 79.6257 370.754 80.5046 370.743 81.4741V85.4851C370.743 86.6996 370.967 87.7489 371.414 88.6332C371.872 89.5174 372.517 90.1992 373.348 90.6786C374.179 91.158 375.164 91.3977 376.304 91.3977C377.061 91.3977 377.753 91.2912 378.382 91.0781C379.01 90.8651 379.548 90.5455 379.996 90.1193C380.443 89.6932 380.784 89.1712 381.018 88.5533L387.314 88.9688C386.995 90.4815 386.34 91.8026 385.349 92.9318C384.369 94.0504 383.101 94.924 381.546 95.5526C380.001 96.1705 378.216 96.4794 376.192 96.4794ZM403.087 96.4794C400.562 96.4794 398.389 95.968 396.567 94.9453C394.756 93.9119 393.36 92.4524 392.38 90.5668C391.4 88.6705 390.91 86.4279 390.91 83.8391C390.91 81.3143 391.4 79.0984 392.38 77.1914C393.36 75.2844 394.74 73.7983 396.519 72.733C398.309 71.6676 400.407 71.1349 402.815 71.1349C404.434 71.1349 405.942 71.396 407.337 71.918C408.744 72.4293 409.969 73.2017 411.013 74.2351C412.068 75.2685 412.888 76.5682 413.474 78.1342C414.06 79.6896 414.353 81.5114 414.353 83.5994V85.4691H393.627V81.2504H407.945C407.945 80.2702 407.732 79.402 407.306 78.6456C406.879 77.8892 406.288 77.2979 405.532 76.8718C404.786 76.435 403.918 76.2166 402.927 76.2166C401.894 76.2166 400.977 76.4563 400.178 76.9357C399.39 77.4045 398.772 78.0384 398.325 78.8374C397.877 79.6257 397.648 80.5046 397.638 81.4741V85.4851C397.638 86.6996 397.861 87.7489 398.309 88.6332C398.767 89.5174 399.411 90.1992 400.242 90.6786C401.073 91.158 402.059 91.3977 403.199 91.3977C403.955 91.3977 404.648 91.2912 405.276 91.0781C405.905 90.8651 406.443 90.5455 406.89 90.1193C407.337 89.6932 407.678 89.1712 407.913 88.5533L414.209 88.9688C413.889 90.4815 413.234 91.8026 412.243 92.9318C411.263 94.0504 409.996 94.924 408.44 95.5526C406.895 96.1705 405.111 96.4794 403.087 96.4794ZM418.795 96V71.4545H425.395V75.7372H425.651C426.098 74.2138 426.849 73.0632 427.904 72.2855C428.959 71.4972 430.173 71.103 431.547 71.103C431.888 71.103 432.256 71.1243 432.65 71.1669C433.044 71.2095 433.39 71.2681 433.689 71.3427V77.3832C433.369 77.2873 432.927 77.2021 432.362 77.1275C431.798 77.0529 431.281 77.0156 430.812 77.0156C429.811 77.0156 428.916 77.234 428.128 77.6708C427.35 78.0969 426.732 78.6935 426.274 79.4606C425.826 80.2276 425.603 81.1119 425.603 82.1133V96H418.795ZM437.208 96V71.4545H444.016V96H437.208ZM440.628 68.2905C439.616 68.2905 438.748 67.9549 438.023 67.2837C437.31 66.6019 436.953 65.7869 436.953 64.8388C436.953 63.9013 437.31 63.0969 438.023 62.4258C438.748 61.744 439.616 61.4031 440.628 61.4031C441.64 61.4031 442.503 61.744 443.217 62.4258C443.941 63.0969 444.303 63.9013 444.303 64.8388C444.303 65.7869 443.941 66.6019 443.217 67.2837C442.503 67.9549 441.64 68.2905 440.628 68.2905ZM456.277 81.8097V96H449.469V71.4545H455.957V75.7852H456.245C456.788 74.3576 457.699 73.2283 458.977 72.3974C460.256 71.5558 461.806 71.1349 463.627 71.1349C465.332 71.1349 466.818 71.5078 468.086 72.2536C469.354 72.9993 470.339 74.0646 471.042 75.4496C471.745 76.8239 472.097 78.4645 472.097 80.3714V96H465.289V81.5859C465.3 80.0838 464.917 78.9119 464.139 78.0703C463.361 77.218 462.29 76.7919 460.927 76.7919C460.011 76.7919 459.201 76.989 458.498 77.3832C457.805 77.7773 457.262 78.3526 456.868 79.109C456.484 79.8548 456.287 80.755 456.277 81.8097ZM488.52 105.716C486.315 105.716 484.424 105.412 482.848 104.805C481.281 104.208 480.035 103.393 479.108 102.36C478.181 101.327 477.579 100.165 477.302 98.8764L483.599 98.0295C483.79 98.5195 484.094 98.9776 484.509 99.4038C484.925 99.8299 485.474 100.171 486.155 100.426C486.848 100.693 487.689 100.826 488.68 100.826C490.161 100.826 491.381 100.464 492.34 99.7393C493.309 99.0256 493.794 97.8271 493.794 96.1438V91.6534H493.506C493.208 92.3352 492.761 92.9798 492.164 93.587C491.567 94.1942 490.8 94.6896 489.863 95.0732C488.925 95.4567 487.807 95.6484 486.507 95.6484C484.664 95.6484 482.986 95.2223 481.473 94.37C479.971 93.5071 478.773 92.1914 477.878 90.4229C476.993 88.6438 476.551 86.396 476.551 83.6793C476.551 80.8988 477.004 78.5763 477.91 76.712C478.815 74.8477 480.019 73.4521 481.521 72.5252C483.034 71.5984 484.691 71.1349 486.491 71.1349C487.865 71.1349 489.016 71.3693 489.943 71.8381C490.87 72.2962 491.615 72.8714 492.18 73.5639C492.755 74.2457 493.197 74.9169 493.506 75.5774H493.762V71.4545H500.522V96.2397C500.522 98.3278 500.01 100.075 498.987 101.481C497.965 102.887 496.548 103.942 494.737 104.645C492.936 105.359 490.864 105.716 488.52 105.716ZM488.664 90.5348C489.762 90.5348 490.688 90.2631 491.445 89.7198C492.212 89.1658 492.798 88.3775 493.203 87.3548C493.618 86.3214 493.826 85.0856 493.826 83.6474C493.826 82.2092 493.623 80.9627 493.219 79.908C492.814 78.8427 492.228 78.017 491.461 77.4311C490.694 76.8452 489.762 76.5522 488.664 76.5522C487.546 76.5522 486.603 76.8558 485.836 77.4631C485.069 78.0597 484.488 78.8906 484.094 79.956C483.7 81.0213 483.503 82.2518 483.503 83.6474C483.503 85.0643 483.7 86.2894 484.094 87.3228C484.499 88.3455 485.079 89.1392 485.836 89.7038C486.603 90.2578 487.546 90.5348 488.664 90.5348Z" fill="#EAEAEA"/>
</svg>
